<svg width="203" height="49" viewBox="0 0 203 49" fill="none" xmlns="http://www.w3.org/2000/svg">
<path d="M1.6999 22.0816C1.24746 23.9799 0.814681 25.2291 0.37207 24.2258C0.175355 23.7045 -0.159063 22.18 0.0868324 20.98L0.283548 19.7899L0.578622 18.6686L0.873696 17.5572C0.991726 17.1932 1.13926 16.8391 1.26713 16.4752L1.6704 15.3933C1.81793 15.0392 2.00481 14.6949 2.16219 14.3507L2.66381 13.3179C2.83102 12.9737 3.04741 12.6589 3.24412 12.3245C4.82769 9.68852 6.90304 7.3476 9.35215 5.4788C11.7914 3.60016 14.6045 2.19364 17.5749 1.37727C18.3224 1.19039 19.0601 0.95433 19.8273 0.865807L20.9682 0.678927C21.1551 0.659256 21.3518 0.619913 21.5387 0.600241L22.119 0.570734L23.2993 0.541226L23.8796 0.511719H24.1255L24.2534 0.521555L24.519 0.53139L25.5812 0.580569L26.1124 0.610077L26.3779 0.629748L26.673 0.669092C27.4599 0.787121 28.2762 0.885479 29.0434 1.04285C29.7909 1.23957 30.5385 1.41661 31.2761 1.633C31.9942 1.89857 32.722 2.16413 33.44 2.43953L35.5154 3.45262C36.194 3.82638 36.8432 4.22965 37.4825 4.66243L35.0236 7.43612C34.4826 7.0722 33.922 6.73778 33.3417 6.42303C32.8597 6.17714 32.3778 5.93124 31.886 5.69518L30.3712 5.11487C30.1155 5.00668 29.8598 4.93783 29.5942 4.86898L28.8074 4.65259C28.5418 4.58374 28.2762 4.49522 28.0205 4.44604L27.2435 4.31817L26.4664 4.18047C26.3386 4.1608 26.2205 4.13129 26.073 4.12146L25.6304 4.09195L23.919 3.97392H23.7518L23.5452 3.98375L23.1321 3.99359L22.3157 4.0231C21.7649 4.01326 21.224 4.13129 20.683 4.19031C18.5191 4.50505 16.3749 5.10504 14.4176 6.11812C13.9946 6.28533 13.6111 6.54106 13.2176 6.76729C12.834 7.00334 12.4111 7.19022 12.0472 7.46563C11.2996 7.99676 10.5324 8.48855 9.86361 9.09837L9.34232 9.54098L9.07675 9.75737L8.84069 9.99343C8.52595 10.318 8.20136 10.6328 7.88662 10.9475L7.65056 11.1836L7.43417 11.4393L7.0014 11.9508C6.72599 12.295 6.40141 12.6097 6.15552 12.9737C4.03099 15.8064 2.56545 18.9538 1.6999 22.0816Z" fill="white"/>
<path d="M47.3872 26.2028C47.3872 26.9601 47.2298 27.8257 47.1216 28.6617L47.0331 29.2912C47.0036 29.5076 46.9446 29.6945 46.8954 29.901L46.6003 31.101C46.5413 31.2977 46.502 31.5042 46.4429 31.701L46.2364 32.2813L45.8233 33.4517C45.6954 33.855 45.4987 34.2189 45.3315 34.5927L44.8004 35.714C43.2955 38.6647 41.1119 41.2614 38.5153 43.3269C35.9088 45.3924 32.8597 46.9071 29.6237 47.7235C28.8172 47.9694 27.991 48.0677 27.1648 48.2054C26.3386 48.3726 25.5025 48.3628 24.6665 48.4218L24.037 48.4513H23.8108L23.6632 48.4415L23.3682 48.4317L22.1977 48.3825L21.6174 48.353L20.9781 48.2644L19.6896 48.0776C19.1388 48.0185 18.6568 47.871 18.1454 47.7431C17.6437 47.6054 17.1323 47.5071 16.6405 47.33C15.6667 46.9661 14.6635 46.6514 13.7488 46.1497C11.8504 45.2842 10.139 44.0547 8.56529 42.7171L7.43417 41.6548C7.24729 41.4876 7.07025 41.2909 6.90304 41.0941L6.39158 40.5138C5.67356 39.7565 5.11292 38.8909 4.5031 38.0549C3.42117 36.3041 2.43759 34.4845 1.8376 32.5173C1.74908 32.2419 1.66056 31.9764 1.57204 31.7206C1.49335 31.4551 1.45401 31.1895 1.39499 30.9338C1.29664 30.4223 1.20811 29.9305 1.12943 29.4682C1.0409 28.5338 1.05074 27.7076 1.07041 27.0191C1.25729 25.6323 1.57204 24.8061 1.97531 24.6684C2.93921 24.3733 3.12609 27.7371 4.57196 31.337L5.03424 32.5173C5.21128 32.9108 5.42767 33.2747 5.61455 33.6583C5.96864 34.4353 6.4801 35.1238 6.92271 35.8418C7.14893 36.2058 7.43417 36.5107 7.6899 36.8549C7.96531 37.1795 8.19153 37.5434 8.49644 37.8385C9.07675 38.4483 9.63739 39.0876 10.2964 39.6188C11.5357 40.7696 12.9717 41.6745 14.4373 42.5007L15.5782 43.0416C15.7651 43.1302 15.952 43.2285 16.1487 43.3072L16.7487 43.5138L17.9388 43.9465L19.1584 44.2613C25.6992 45.9137 33.0171 44.0449 37.9546 39.363C39.5185 37.8975 40.866 36.2058 41.948 34.3468C42.9316 32.419 43.6102 30.3043 43.9742 28.2289C44.0332 27.7076 44.1315 27.2257 44.1905 26.6847L44.2692 24.9241L44.2791 24.7077V24.5798L44.2594 24.1766L44.2201 23.37L44.1807 22.5635L44.0528 21.7668L43.9348 20.9701L43.8758 20.5668C43.8463 20.4291 43.8069 20.3013 43.7774 20.1734L43.384 18.6095L42.8332 17.0948L42.6955 16.7112L42.5578 16.426L44.8004 12.8064C45.5872 14.2523 46.2069 15.7768 46.6593 17.3505C47.4954 20.2423 47.7216 23.311 47.3872 26.2028Z" fill="white"/>
<path d="M15.1848 18.4227C13.257 18.4325 11.7029 19.9964 11.7029 21.9242C11.7029 22.7209 11.9783 23.498 12.4898 24.1176L21.3518 34.9665C21.9912 35.7632 22.9747 36.196 23.9977 36.137C25.0698 36.078 26.0435 35.5075 26.6632 34.5534L45.0659 4.92799L45.0758 4.91815C45.2528 4.65259 45.1938 4.13129 44.8397 3.79687C44.4463 3.43295 43.8266 3.45262 43.4627 3.84605C43.4529 3.85589 43.4332 3.87556 43.4234 3.89523C43.4135 3.90506 43.4135 3.9149 43.4037 3.9149L24.8337 24.8848C24.5386 25.2192 24.0272 25.2487 23.7026 24.9537L23.6927 24.9438L17.5355 19.3374C16.8962 18.7571 16.0602 18.4227 15.1848 18.4227Z" fill="#40B385"/>
<path d="M54.549 35.2957V13.4059H58.2796L68.4931 28.8352V13.4059H72.2238V35.2957H68.4931L58.2796 19.8664V35.2957H54.549Z" fill="white"/>
<path d="M83.7911 35.7517C82.1398 35.7517 80.6975 35.3818 79.4641 34.642C78.2308 33.9022 77.2726 32.8838 76.5897 31.5866C75.9169 30.2793 75.5806 28.7794 75.5806 27.087C75.5806 25.3642 75.9271 23.8542 76.6202 22.5571C77.3134 21.2599 78.2766 20.2465 79.51 19.5168C80.7433 18.7872 82.1704 18.4223 83.7911 18.4223C85.4526 18.4223 86.9 18.7922 88.1333 19.532C89.3667 20.2718 90.3249 21.2954 91.0078 22.6027C91.6907 23.8998 92.0322 25.3946 92.0322 27.087C92.0322 28.7896 91.6856 30.2945 90.9925 31.6018C90.3096 32.899 89.3514 33.9174 88.118 34.6572C86.8847 35.3869 85.4424 35.7517 83.7911 35.7517ZM83.7911 32.3162C85.2589 32.3162 86.3495 31.8298 87.0631 30.8569C87.7766 29.884 88.1333 28.6274 88.1333 27.087C88.1333 25.496 87.7715 24.2292 87.0478 23.2867C86.3241 22.3341 85.2385 21.8578 83.7911 21.8578C82.8024 21.8578 81.9869 22.0808 81.3447 22.5267C80.7128 22.9624 80.2439 23.5755 79.9381 24.366C79.6323 25.1463 79.4794 26.0533 79.4794 27.087C79.4794 28.6781 79.8413 29.9499 80.565 30.9025C81.2989 31.845 82.3742 32.3162 83.7911 32.3162Z" fill="white"/>
<path d="M105.079 35.2957C103.989 35.4984 102.918 35.5845 101.868 35.5541C100.829 35.5338 99.8961 35.3464 99.0704 34.9917C98.2448 34.6268 97.6179 34.0542 97.1898 33.2739C96.8127 32.5645 96.6139 31.8399 96.5935 31.1001C96.5731 30.3604 96.5629 29.5243 96.5629 28.5919V14.318H100.232V28.3791C100.232 29.0378 100.238 29.6155 100.248 30.1121C100.268 30.6086 100.375 31.014 100.569 31.3282C100.936 31.9362 101.522 32.2757 102.327 32.3466C103.132 32.4176 104.05 32.377 105.079 32.225V35.2957ZM93.5662 21.7514V18.8784H105.079V21.7514H93.5662Z" fill="white"/>
<path d="M115.301 35.7517C113.629 35.7517 112.162 35.392 110.898 34.6724C109.634 33.9529 108.645 32.9547 107.931 31.6778C107.228 30.4009 106.877 28.9314 106.877 27.2694C106.877 25.4757 107.223 23.9201 107.916 22.6027C108.609 21.2751 109.573 20.2465 110.806 19.5168C112.039 18.7872 113.466 18.4223 115.087 18.4223C116.799 18.4223 118.252 18.8226 119.445 19.6232C120.647 20.4137 121.539 21.5335 122.12 22.9827C122.701 24.4319 122.92 26.1395 122.778 28.1055H119.124V26.7678C119.113 24.9842 118.797 23.682 118.176 22.8611C117.554 22.0402 116.575 21.6298 115.24 21.6298C113.731 21.6298 112.61 22.096 111.876 23.0283C111.142 23.9505 110.775 25.3034 110.775 27.087C110.775 28.749 111.142 30.0361 111.876 30.9481C112.61 31.8602 113.68 32.3162 115.087 32.3162C115.994 32.3162 116.774 32.1186 117.426 31.7234C118.089 31.318 118.599 30.7353 118.955 29.9753L122.594 31.0697C121.962 32.5493 120.984 33.6996 119.659 34.5204C118.344 35.3413 116.891 35.7517 115.301 35.7517ZM109.613 28.1055V25.3389H120.974V28.1055H109.613Z" fill="white"/>
<path d="M134.339 35.7517C132.728 35.7517 131.276 35.473 129.981 34.9156C128.697 34.3583 127.637 33.5627 126.801 32.5291C125.975 31.4852 125.45 30.2489 125.226 28.82L129.048 28.2423C129.375 29.5395 130.042 30.5428 131.051 31.2522C132.071 31.9615 133.243 32.3162 134.568 32.3162C135.353 32.3162 136.092 32.1946 136.785 31.9514C137.478 31.7082 138.039 31.3535 138.467 30.8873C138.905 30.4212 139.124 29.8486 139.124 29.1696C139.124 28.8656 139.073 28.5869 138.971 28.3335C138.869 28.07 138.717 27.837 138.513 27.6343C138.319 27.4316 138.064 27.2492 137.748 27.087C137.442 26.9147 137.086 26.7678 136.678 26.6462L130.99 24.9741C130.501 24.8322 129.971 24.6447 129.4 24.4116C128.839 24.1684 128.304 23.839 127.795 23.4235C127.295 22.9979 126.882 22.4608 126.556 21.8122C126.24 21.1535 126.082 20.3428 126.082 19.38C126.082 17.9714 126.439 16.7907 127.152 15.8381C127.876 14.8754 128.845 14.1559 130.057 13.6796C131.281 13.2032 132.636 12.9702 134.125 12.9803C135.633 12.9904 136.979 13.2489 138.161 13.7556C139.343 14.2521 140.332 14.9767 141.127 15.9293C141.922 16.8819 142.483 18.0322 142.809 19.38L138.849 20.0641C138.686 19.2939 138.37 18.6402 137.901 18.1031C137.442 17.5559 136.877 17.1404 136.204 16.8566C135.541 16.5729 134.833 16.4208 134.079 16.4006C133.345 16.3904 132.662 16.5019 132.03 16.735C131.408 16.9579 130.904 17.2822 130.516 17.7079C130.139 18.1335 129.95 18.6301 129.95 19.1976C129.95 19.7347 130.114 20.1755 130.44 20.5201C130.766 20.8545 131.169 21.1231 131.648 21.3258C132.137 21.5183 132.631 21.6805 133.131 21.8122L137.075 22.9067C137.616 23.0486 138.222 23.2411 138.895 23.4843C139.568 23.7276 140.215 24.067 140.837 24.5028C141.458 24.9386 141.968 25.5112 142.366 26.2206C142.773 26.9299 142.977 27.8319 142.977 28.9264C142.977 30.0614 142.738 31.0596 142.259 31.921C141.79 32.7723 141.153 33.4817 140.347 34.0492C139.542 34.6167 138.62 35.0423 137.58 35.3261C136.55 35.6098 135.47 35.7517 134.339 35.7517Z" fill="white"/>
<path d="M149.803 35.2957L144.758 18.848L148.366 18.8784L151.592 29.4128L154.864 18.8784H157.968L161.225 29.4128L164.466 18.8784H168.074L163.029 35.2957H160.154L156.408 24.0012L152.678 35.2957H149.803Z" fill="white"/>
<path d="M174.525 35.7517C173.333 35.7517 172.324 35.5288 171.498 35.0829C170.672 34.6268 170.046 34.0238 169.618 33.2739C169.2 32.524 168.991 31.6981 168.991 30.7961C168.991 30.0057 169.123 29.2963 169.388 28.6679C169.653 28.0295 170.061 27.4823 170.611 27.0262C171.162 26.56 171.875 26.18 172.752 25.8861C173.414 25.6733 174.189 25.4808 175.076 25.3085C175.973 25.1362 176.941 24.9791 177.981 24.8372C179.031 24.6852 180.127 24.5231 181.268 24.3508L179.953 25.0957C179.963 23.9606 179.709 23.1246 179.189 22.5875C178.669 22.0504 177.792 21.7818 176.559 21.7818C175.815 21.7818 175.096 21.9541 174.403 22.2986C173.71 22.6432 173.226 23.2361 172.951 24.0772L169.587 23.0283C169.995 21.6399 170.769 20.5252 171.911 19.684C173.063 18.8429 174.612 18.4223 176.559 18.4223C178.027 18.4223 179.316 18.6605 180.427 19.1368C181.549 19.6131 182.379 20.3934 182.919 21.4778C183.215 22.0554 183.393 22.6483 183.455 23.2563C183.516 23.8542 183.546 24.5079 183.546 25.2173V35.2957H180.32V31.7386L180.855 32.3162C180.111 33.5019 179.24 34.3735 178.241 34.9309C177.252 35.4781 176.014 35.7517 174.525 35.7517ZM175.259 32.8331C176.095 32.8331 176.809 32.6861 177.4 32.3922C177.991 32.0984 178.46 31.7386 178.807 31.313C179.163 30.8873 179.403 30.487 179.525 30.1121C179.719 29.6459 179.826 29.1139 179.846 28.5159C179.877 27.9079 179.892 27.4164 179.892 27.0414L181.024 27.3758C179.913 27.5481 178.959 27.7001 178.164 27.8319C177.369 27.9636 176.686 28.0903 176.116 28.2119C175.545 28.3234 175.04 28.4501 174.602 28.5919C174.174 28.744 173.812 28.9213 173.516 29.124C173.221 29.3267 172.991 29.5598 172.828 29.8232C172.675 30.0867 172.599 30.3958 172.599 30.7505C172.599 31.1559 172.701 31.5156 172.905 31.8298C173.109 32.1338 173.404 32.377 173.792 32.5595C174.189 32.7419 174.678 32.8331 175.259 32.8331Z" fill="white"/>
<path d="M195.462 35.7517C193.852 35.7517 192.501 35.3717 191.41 34.6116C190.32 33.8516 189.499 32.8179 188.949 31.5106C188.398 30.1931 188.123 28.7186 188.123 27.087C188.123 25.4352 188.398 23.9556 188.949 22.6483C189.499 21.341 190.305 20.3123 191.365 19.5624C192.435 18.8024 193.755 18.4223 195.325 18.4223C196.884 18.4223 198.235 18.8024 199.376 19.5624C200.528 20.3123 201.42 21.341 202.052 22.6483C202.684 23.9454 203 25.425 203 27.087C203 28.7288 202.689 30.2033 202.067 31.5106C201.446 32.8179 200.569 33.8516 199.438 34.6116C198.306 35.3717 196.981 35.7517 195.462 35.7517ZM187.496 42.5923V18.8784H190.753V30.4009H191.212V42.5923H187.496ZM194.897 32.4683C195.855 32.4683 196.645 32.2301 197.266 31.7538C197.888 31.2775 198.347 30.634 198.642 29.8232C198.948 29.0024 199.101 28.0903 199.101 27.087C199.101 26.0939 198.948 25.1919 198.642 24.3812C198.337 23.5603 197.863 22.9118 197.221 22.4355C196.578 21.949 195.763 21.7058 194.774 21.7058C193.836 21.7058 193.072 21.9338 192.481 22.3898C191.89 22.8358 191.451 23.4641 191.166 24.2748C190.891 25.0754 190.753 26.0128 190.753 27.087C190.753 28.1511 190.891 29.0885 191.166 29.8992C191.451 30.71 191.895 31.3434 192.496 31.7994C193.108 32.2453 193.908 32.4683 194.897 32.4683Z" fill="white"/>
</svg>
