<svg xmlns="http://www.w3.org/2000/svg" width="154" height="133" fill="none" xmlns:v="https://vecta.io/nano"><path d="M7.568 131.662c1.82.549 3.616.743 5.361.829 5.77.071 8.864.023 62.636-.441l42.373-.454 10.173-.123c5.253-.076 10.723.018 15.415-1.452.086-.031.185-.075.274-.108h.005a9.04 9.04 0 0 0 5.699-2.543 15.11 15.11 0 0 0 2.443-3.02c.719-1.192 1.375-2.703 1.404-4.471.037-3.583-2.015-6.55-4.078-9.202-2.098-2.672-4.761-5.165-6.775-7.823-1.979-2.522-2.452-5.754-2.165-9.598l.838-12.385 1.192-23.975c.147-7.314.116-14.342-2.112-19.98-1.071-2.811-2.863-5.131-4.692-6.617-1.834-1.531-3.682-2.427-5.222-2.968-1.726-.578-3.008-.752-3.859-.764-.729-.402-1.475-.738-2.208-.982a19.34 19.34 0 0 0-5.257-.96c-3.352-.109-6.241.023-8.919.027-22.524.305-21.562.946-.015 1.727 2.639.126 5.669.131 8.783.355 3.008.288 6.529 1.179 8.563 3.698 2.031 2.562 2.241 6.639 2.466 10.85.728 14.671-.785 29.486-1.836 44.432-.143 2.837-.486 5.483-.612 8.582-.028.753-.025 1.539.025 2.341-2.952-.427-9.006-.8-17.17-1.083a59.91 59.91 0 0 0 .157-2.016c-.035-1.474-.223-3.294-.513-5.4-.534-2.047-1.011-4.458-2.18-6.894-2.107-4.935-5.912-10.391-11.639-14.755-2.807-2.255-6.199-3.997-9.824-5.504a70.21 70.21 0 0 0-3.752-1.088c1.839-1.075 3.559-2.373 4.626-3.858 1.148-1.488 1.904-2.935 2.363-4.163.908-2.48.764-3.963.496-4.006-.328-.074-.774 1.246-2.043 3.238-.638.991-1.507 2.135-2.682 3.295-1.097 1.161-2.627 2.043-4.581 2.937-1.76.84-3.913 1.393-6.154 1.425-.073 0-.143-.012-.217-.011-.064-.002-.125.005-.189.003-2.206-.032-4.481-.572-6.544-1.885a13.12 13.12 0 0 1-4.966-5.989c-1.06-2.59-1.724-5.606-1.319-8.449.352-2.871 1.737-5.386 3.732-7.185 2.029-1.766 4.585-2.81 7.16-3.23 5.245-.905 9.974.934 12.821 3.703 2.937 2.758 4.019 6.091 4.396 8.369.365 2.316.232 3.71.586 3.778.236.063.978-1.228 1.139-3.875.134-2.584-.572-6.726-3.852-10.44-.329-.394-.708-.77-1.101-1.139.633.143 1.574.182 2.735-.645 1.105-.938 1.497-2.053 1.818-3.128.294-1.089.43-2.214.449-3.342-.007-2.441-.323-4.499-.766-6.009 1.853-.752 4.139-1.684 5.814-2.834.757-.506 1.996-1.608 2.28-2.693.471-1.152-.018-2.472-.954-3.302-1.186-1.053-1.644-.972-2.434-1.389L86.04 5.152c-3.226-1.29-6.372-2.887-9.967-3.967C74.249.631 72.04.306 69.97.656c-2.046.322-3.822 1.07-5.401 1.848-3.093 1.593-5.743 3.339-8.432 4.909-1.326.812-2.605 1.536-3.869 2.413l-.474.328-.751.579c-.522.368-.945.851-1.322 1.292-.681.876-.939 2.031-.415 2.988.453.903 1.434 1.521 2.5 1.999l1.319.496.956.295 1.195.327c-.276 1.994-.336 4.771-.116 7.863.058 1.551.267 3.547 1.563 5.172 1.325 1.618 3.132 2.027 4.272 2.043.011 0 .019-.003.03-.003-2.158 2.331-3.694 5.371-4.087 8.652-.516 3.888.349 7.553 1.747 10.797 1.309 3.005 3.54 5.52 6.125 7.23-4.716 1.255-8.99 3.46-12.411 6.226-5.667 4.538-9.217 10.193-11.102 15.209-1.971 5.027-2.303 9.443-2.213 12.391a19.92 19.92 0 0 0 .133 1.769c-7.654.236-13.727.548-17.459.909.32-3.075.398-5.78.468-8.613.295-15.447-1.468-29.777-1.865-44.728-.144-4.255-.074-8.164 1.245-11.423.625-1.615 1.542-2.986 2.744-3.843 1.215-.866 2.615-1.211 4.165-1.23l8.84-.408c10.623-.585 16.514-.758 16.51-1.105-.001-.153-1.472-.295-4.274-.426-4.646-.267-13.42-.194-21.121-.176-1.669-.055-3.74.301-5.429 1.452-1.716 1.137-2.936 2.915-3.727 4.785-1.658 3.769-1.807 8.149-1.776 12.414.016 15.284 1.524 29.27 1.01 44.586-.097 2.715-.244 5.676-.554 8.288-.054.389-.179.779-.289 1.168-.036.033-.125.065-.125.098 0 .023.068.044.084.066-.576 1.907-1.739 3.801-3.127 5.599-1.726 2.235-3.803 4.369-5.908 6.639-2.143 2.243-4.229 4.876-5.915 7.711-.854 1.465-1.713 3.112-1.985 5.179-.333 2.052.376 4.492 1.787 6.042 1.331 1.698 3.267 2.642 5.053 3.199zm52.026-105.83c-.181-2.599-.55-4.947-1.001-6.805 8.343 2.203 13.577 3.286 13.754 2.724.305-.973-14.291-6.154-15.334-6.53-.159-.135-.318-.2-.472-.175l-1.382-.494-.849-.329-.486-.219c-.106-.071-.203-.134-.254-.229-.067-.105.062-.226.15-.277l.153-.086.534-.325c1.149-.721 2.493-1.416 3.801-2.151 2.64-1.414 5.41-3.12 8.254-4.521 3.753-1.779 5.711-1.75 8.371-.971 6.315 2.227 12.244 4.863 17.765 6.929 1.867.745 1.574.533 1.627.769-.008.042-.033.077-.057.115-.005.021-.054.071-.251.219-.286.228-.959.648-1.463.937-1.102.633-2.245 1.19-3.383 1.747-1.197.575-2.254 1.184-3.26 1.729-2.013 1.107-3.816 2.069-5.428 2.797-1.679.769-2.851 1.196-4.057 1.146-2.394-.065-3.903-.43-3.98-.082-.055.239 1.076 1.141 3.806 1.801a7.55 7.55 0 0 0 2.436.1c2.706-.436 5.891-1.757 8.433-2.873-.158 1.331-.238 2.857-.237 4.421.005 1.925-.205 3.789-.231 4.169.065.289-.495.73-.941 1.035-.417.301-.689.601-.721.915-3.347-2.497-8.142-4.052-13.217-3.348-2.707.331-5.547 1.304-8.078 3.022-.528-.263-1.237-.531-1.988-.862-1.63-.849-1.895-1.323-2.015-4.299zm-.025 101.952c.214-1.298.514-2.974 1.111-4.88.368-1.028.879-1.965 1.552-2.291.824-.513 2.044-.786 3.476-.883 2.867-.126 6.661.092 10.349.041 3.677.056 7.517-.212 10.278-.019 2.835.202 4.042 1.516 5.088 3.703.673 1.446 1.335 2.893 2.085 4.003l-33.939.326zm89.417-3.955c-.023-.484-.1-.949-.168-1.423-.279-1.026-.677-1.998-1.163-2.764-.083-.137-.168-.236-.251-.367.562-.247 1.124-.604 1.605-1.229.177-.232.323-.468.443-.703.422.876.733 1.738.763 2.552.088 1.338-.49 2.712-1.229 3.934zm-1.762-9.853c-.656.286-1.265.778-1.736 1.37-.168.227-.311.475-.443.726l-.421-.521c-1.158-1.378-2.347-2.696-3.531-3.991.381-.146.765-.354 1.132-.627.473-.353.813-.767 1.087-1.193 1.121 1.129 2.192 2.196 3.141 3.299.274.311.515.624.771.937zm-6.662-7.142c-.922.372-1.573.905-2.106 1.846-1.405-1.547-2.694-3.083-3.891-4.627 1.221-.09 2.173-.622 2.872-1.664a14.3 14.3 0 0 0 1.804 2.935c.441.54.881 1.02 1.321 1.51zm-3.737-70.142c.168.414.338.827.472 1.278.577 1.816.859 3.901 1.037 6.101-.714-.742-2.283-1.174-4.061-1.024a7.93 7.93 0 0 0-1.449.263l-.115-2.204-.311-3.376c.614.17 1.313.243 2.073.108.986-.174 1.808-.607 2.354-1.147zm1.611 16.431c-.696-.191-1.481-.32-2.336-.335-1.116-.008-2.166.137-2.973.439l-.086-5.786a7.84 7.84 0 0 0 1.604.028c1.768-.148 3.238-.83 3.824-1.675.099 2.289.069 4.748-.033 7.329zm-1.473 24.063c-.721-.162-1.571-.195-2.442-.124-.84.087-1.639.27-2.306.545l.494-8.909c1.365.831 3.185 1.02 4.761.6l-.507 7.889zm1.306-20.298l-.544 8.447a10.67 10.67 0 0 0-1.977-.259c-1.075-.017-2.095.099-2.895.374a278.07 278.07 0 0 0 .26-8.93c1.414.751 3.382.95 5.156.368zm-6.54 29.055l.29-4.968c1.433.725 3.275.672 4.697.059l-.401 6.658c-.81-.243-1.846-.284-2.939-.099a7.88 7.88 0 0 0-1.749.537c.048-.731.086-1.461.102-2.187zm-.37 5.867c1.415.458 3.239.302 4.739-.535l-.105 1.748c-.097 2.031-.052 4.165.408 6.279-1.384-.284-3.042.427-3.832 1.862-1.424-2.692-1.442-5.947-1.21-9.354zm-2.012-62.946c-.06-.071-.131-.124-.192-.192.169.087.306.143.483.24 1.622.893 3.674 2.325 5.335 4.5-1.158-.085-2.187.179-3.144.844-.45-1.928-1.172-3.775-2.482-5.392zM44.182 82.552c2.078-4.454 5.574-9.365 10.714-13.206 5.082-3.831 12.021-6.39 19.374-6.154 3.689-.072 7.213.886 10.54 1.878 3.231 1.3 6.305 2.761 8.885 4.709 5.267 3.746 8.96 8.465 11.234 12.813 2.934 5.493 3.705 10.179 4.096 12.918-19.403-.632-47.476-.681-68.436-.074.325-2.766 1.004-7.369 3.594-12.885zM4.827 122.927c.118-1.11.689-2.378 1.41-3.611 2.859-5.212 7.601-9.014 11.401-14.056 1.566-2.105 3.037-4.485 3.753-7.233 8.105.83 28.372 1.419 52.157 1.419 25.967 0 47.741-.701 54.062-1.653.242 2.049.78 4.143 1.937 6.025 3.517 5.427 8.039 9.586 11.931 14.344.964 1.168 1.948 2.43 2.597 3.54.64 1.125.97 2.273.67 2.698-.189.505-1.205 1.219-2.534 1.626-1.338.405-2.836.667-4.381.835-3.107.318-6.382.286-9.761.313l-32.233.263c-.516-1.099-.829-2.742-1.489-5.118-.369-1.238-.969-2.792-2.301-4.172-1.345-1.405-3.336-2.156-5.146-2.445-1.845-.309-3.638-.293-5.375-.33l-5.473-.04c-3.808.062-7.171-.065-10.783.331-1.777.253-3.659.759-5.19 1.964-1.742 1.371-2.179 3.199-2.437 4.485-.324 2.411-.221 4.305.028 5.691l-24.522.263-20.037.19c-3.049-.1-6.037-.738-7.397-2.466a3.42 3.42 0 0 1-.889-2.864z" fill="#131313"/></svg>