<svg width="203" height="48" viewBox="0 0 203 48" fill="none" xmlns="http://www.w3.org/2000/svg">
<path d="M1.6999 21.5699C1.24746 23.4682 0.814681 24.7174 0.37207 23.7141C0.175355 23.1928 -0.159063 21.6683 0.0868324 20.4683L0.283548 19.2782L0.578622 18.1569L0.873696 17.0454C0.991726 16.6815 1.13926 16.3274 1.26713 15.9635L1.6704 14.8816C1.81793 14.5275 2.00481 14.1832 2.16219 13.839L2.66381 12.8062C2.83102 12.462 3.04741 12.1472 3.24412 11.8128C4.82769 9.1768 6.90304 6.83588 9.35215 4.96708C11.7914 3.08844 14.6045 1.68192 17.5749 0.86555C18.3224 0.67867 19.0601 0.442611 19.8273 0.354089L20.9682 0.167209C21.1551 0.147537 21.3518 0.108194 21.5387 0.0885222L22.119 0.0590148L23.2993 0.0295074L23.8796 0H24.1255L24.2534 0.0098358L24.519 0.0196716L25.5812 0.0688506L26.1124 0.098358L26.3779 0.11803L26.673 0.157373C27.4599 0.275402 28.2762 0.37376 29.0434 0.531133C29.7909 0.727849 30.5385 0.904893 31.2761 1.12128C31.9942 1.38685 32.722 1.65241 33.44 1.92782L35.5154 2.9409C36.194 3.31466 36.8432 3.71793 37.4825 4.15071L35.0236 6.9244C34.4826 6.56048 33.922 6.22606 33.3417 5.91131C32.8597 5.66542 32.3778 5.41952 31.886 5.18347L30.3713 4.60315C30.1155 4.49496 29.8598 4.42611 29.5942 4.35726L28.8074 4.14087C28.5418 4.07202 28.2762 3.9835 28.0205 3.93432L27.2435 3.80645L26.4664 3.66875C26.3386 3.64908 26.2205 3.61957 26.073 3.60974L25.6304 3.58023L23.919 3.4622H23.7518L23.5452 3.47204L23.1321 3.48187L22.3157 3.51138C21.7649 3.50154 21.224 3.61957 20.683 3.67859C18.5191 3.99333 16.3749 4.59332 14.4176 5.6064C13.9946 5.77361 13.6111 6.02934 13.2176 6.25557C12.834 6.49163 12.4111 6.67851 12.0472 6.95391C11.2996 7.48504 10.5324 7.97683 9.86362 8.58665L9.34232 9.02926L9.07675 9.24565L8.84069 9.48171C8.52595 9.80629 8.20136 10.121 7.88662 10.4358L7.65056 10.6718L7.43417 10.9276L7.0014 11.439C6.72599 11.7833 6.40141 12.098 6.15552 12.462C4.03099 15.2947 2.56545 18.4421 1.6999 21.5699Z" fill="#3A3A3A"/>
<path d="M47.3872 25.6911C47.3872 26.4485 47.2298 27.314 47.1216 28.1501L47.0331 28.7796C47.0036 28.9959 46.9446 29.1828 46.8954 29.3894L46.6003 30.5893C46.5413 30.7861 46.502 30.9926 46.4429 31.1893L46.2364 31.7696L45.8233 32.9401C45.6954 33.3434 45.4987 33.7073 45.3315 34.081L44.8004 35.2023C43.2955 38.1531 41.1119 40.7497 38.5153 42.8152C35.9088 44.8807 32.8597 46.3955 29.6237 47.2118C28.8172 47.4577 27.991 47.5561 27.1648 47.6938C26.3386 47.861 25.5025 47.8512 24.6665 47.9102L24.037 47.9397H23.8108L23.6632 47.9298L23.3682 47.92L22.1977 47.8708L21.6174 47.8413L20.9781 47.7528L19.6896 47.5659C19.1388 47.5069 18.6568 47.3594 18.1454 47.2315C17.6437 47.0938 17.1323 46.9954 16.6405 46.8184C15.6667 46.4545 14.6635 46.1397 13.7488 45.6381C11.8504 44.7726 10.139 43.5431 8.56529 42.2054L7.43417 41.1431C7.24729 40.9759 7.07025 40.7792 6.90304 40.5825L6.39158 40.0022C5.67356 39.2448 5.11292 38.3793 4.5031 37.5432C3.42117 35.7925 2.43759 33.9728 1.8376 32.0057C1.74908 31.7303 1.66056 31.4647 1.57204 31.209C1.49335 30.9434 1.45401 30.6779 1.39499 30.4221C1.29664 29.9107 1.20811 29.4189 1.12943 28.9566C1.0409 28.0222 1.05074 27.196 1.07041 26.5075C1.25729 25.1206 1.57204 24.2944 1.97531 24.1567C2.93921 23.8617 3.12609 27.2255 4.57196 30.8254L5.03424 32.0057C5.21128 32.3991 5.42767 32.763 5.61455 33.1466C5.96864 33.9237 6.4801 34.6122 6.92271 35.3302C7.14893 35.6941 7.43417 35.999 7.6899 36.3433C7.96531 36.6679 8.19153 37.0318 8.49644 37.3269C9.07675 37.9367 9.63739 38.576 10.2964 39.1071C11.5357 40.2579 12.9717 41.1628 14.4373 41.989L15.5782 42.53C15.7651 42.6185 15.952 42.7169 16.1487 42.7956L16.7487 43.0021L17.9388 43.4349L19.1584 43.7496C25.6992 45.402 33.0171 43.5332 37.9546 38.8514C39.5185 37.3859 40.866 35.6941 41.948 33.8351C42.9316 31.9073 43.6102 29.7926 43.9742 27.7173C44.0332 27.196 44.1315 26.714 44.1905 26.1731L44.2692 24.4125L44.2791 24.1961V24.0682L44.2594 23.6649L44.2201 22.8584L44.1807 22.0519L44.0528 21.2552L43.9348 20.4585L43.8758 20.0552C43.8463 19.9175 43.8069 19.7896 43.7774 19.6618L43.384 18.0979L42.8332 16.5832L42.6955 16.1996L42.5578 15.9143L44.8004 12.2948C45.5872 13.7406 46.2069 15.2652 46.6593 16.8389C47.4954 19.7306 47.7216 22.7994 47.3872 25.6911Z" fill="#3A3A3A"/>
<path d="M15.1848 17.911C13.257 17.9208 11.7029 19.4847 11.7029 21.4125C11.7029 22.2092 11.9783 22.9863 12.4898 23.6059L21.3518 34.4548C21.9912 35.2515 22.9747 35.6843 23.9977 35.6253C25.0698 35.5663 26.0435 34.9958 26.6632 34.0417L45.0659 4.41628L45.0758 4.40645C45.2528 4.14088 45.1938 3.61958 44.8397 3.28517C44.4463 2.92124 43.8266 2.94091 43.4627 3.33435C43.4529 3.34418 43.4332 3.36385 43.4234 3.38353C43.4135 3.39336 43.4135 3.4032 43.4037 3.4032L24.8337 24.3731C24.5386 24.7075 24.0272 24.737 23.7026 24.442L23.6927 24.4321L17.5355 18.8257C16.8962 18.2454 16.0602 17.911 15.1848 17.911Z" fill="#40B385"/>
<path d="M54.549 34.784V12.8943H58.2796L68.4931 28.3235V12.8943H72.2238V34.784H68.4931L58.2796 19.3548V34.784H54.549Z" fill="#3A3A3A"/>
<path d="M83.7911 35.2401C82.1398 35.2401 80.6975 34.8702 79.4641 34.1304C78.2308 33.3906 77.2726 32.3721 76.5897 31.0749C75.9169 29.7676 75.5806 28.2678 75.5806 26.5754C75.5806 24.8526 75.9271 23.3426 76.6202 22.0454C77.3134 20.7482 78.2766 19.7348 79.51 19.0052C80.7433 18.2755 82.1704 17.9107 83.7911 17.9107C85.4526 17.9107 86.9 18.2806 88.1333 19.0204C89.3667 19.7602 90.3249 20.7837 91.0078 22.091C91.6907 23.3882 92.0322 24.883 92.0322 26.5754C92.0322 28.2779 91.6856 29.7828 90.9925 31.0901C90.3096 32.3873 89.3514 33.4058 88.118 34.1456C86.8847 34.8752 85.4424 35.2401 83.7911 35.2401ZM83.7911 31.8046C85.2589 31.8046 86.3495 31.3181 87.0631 30.3453C87.7766 29.3724 88.1333 28.1158 88.1333 26.5754C88.1333 24.9843 87.7715 23.7175 87.0478 22.7751C86.3241 21.8225 85.2385 21.3461 83.7911 21.3461C82.8024 21.3461 81.9869 21.5691 81.3447 22.015C80.7128 22.4508 80.2439 23.0639 79.9381 23.8544C79.6323 24.6347 79.4794 25.5417 79.4794 26.5754C79.4794 28.1664 79.8413 29.4383 80.565 30.3909C81.2989 31.3333 82.3742 31.8046 83.7911 31.8046Z" fill="#3A3A3A"/>
<path d="M105.079 34.784C103.989 34.9867 102.918 35.0728 101.868 35.0424C100.829 35.0222 99.8961 34.8347 99.0704 34.48C98.2448 34.1152 97.6179 33.5426 97.1898 32.7623C96.8127 32.0529 96.6139 31.3283 96.5935 30.5885C96.5731 29.8487 96.5629 29.0126 96.5629 28.0803V13.8063H100.232V27.8675C100.232 28.5262 100.238 29.1038 100.248 29.6004C100.268 30.097 100.375 30.5023 100.569 30.8165C100.936 31.4246 101.522 31.764 102.327 31.835C103.132 31.9059 104.05 31.8654 105.079 31.7134V34.784ZM93.5662 21.2397V18.3667H105.079V21.2397H93.5662Z" fill="#3A3A3A"/>
<path d="M115.301 35.2401C113.629 35.2401 112.162 34.8803 110.898 34.1608C109.634 33.4412 108.645 32.443 107.931 31.1661C107.228 29.8892 106.877 28.4198 106.877 26.7578C106.877 24.964 107.223 23.4084 107.916 22.091C108.609 20.7634 109.573 19.7348 110.806 19.0052C112.039 18.2755 113.466 17.9107 115.087 17.9107C116.799 17.9107 118.252 18.311 119.445 19.1116C120.647 19.902 121.539 21.0219 122.12 22.471C122.701 23.9202 122.92 25.6278 122.778 27.5938H119.124V26.2561C119.113 24.4725 118.797 23.1703 118.176 22.3494C117.554 21.5286 116.575 21.1181 115.24 21.1181C113.731 21.1181 112.61 21.5843 111.876 22.5166C111.142 23.4388 110.775 24.7918 110.775 26.5754C110.775 28.2374 111.142 29.5244 111.876 30.4365C112.61 31.3485 113.68 31.8046 115.087 31.8046C115.994 31.8046 116.774 31.607 117.426 31.2117C118.089 30.8064 118.599 30.2237 118.955 29.4636L122.594 30.5581C121.962 32.0377 120.984 33.1879 119.659 34.0088C118.344 34.8296 116.891 35.2401 115.301 35.2401ZM109.613 27.5938V24.8272H120.974V27.5938H109.613Z" fill="#3A3A3A"/>
<path d="M134.339 35.2401C132.728 35.2401 131.276 34.9614 129.981 34.404C128.697 33.8466 127.637 33.0511 126.801 32.0174C125.975 30.9736 125.45 29.7372 125.226 28.3083L129.048 27.7307C129.375 29.0278 130.042 30.0311 131.051 30.7405C132.071 31.4499 133.243 31.8046 134.568 31.8046C135.353 31.8046 136.092 31.683 136.785 31.4398C137.478 31.1965 138.039 30.8418 138.467 30.3757C138.905 29.9095 139.124 29.3369 139.124 28.6579C139.124 28.3539 139.073 28.0752 138.971 27.8219C138.869 27.5584 138.717 27.3253 138.513 27.1226C138.319 26.9199 138.064 26.7375 137.748 26.5754C137.442 26.4031 137.086 26.2561 136.678 26.1345L130.99 24.4624C130.501 24.3205 129.971 24.133 129.4 23.9C128.839 23.6567 128.304 23.3274 127.795 22.9119C127.295 22.4862 126.882 21.9491 126.556 21.3005C126.24 20.6418 126.082 19.8311 126.082 18.8684C126.082 17.4597 126.439 16.2791 127.152 15.3265C127.876 14.3637 128.845 13.6442 130.057 13.1679C131.281 12.6916 132.636 12.4585 134.125 12.4686C135.633 12.4788 136.979 12.7372 138.161 13.2439C139.343 13.7405 140.332 14.4651 141.127 15.4177C141.922 16.3703 142.483 17.5205 142.809 18.8684L138.849 19.5524C138.686 18.7822 138.37 18.1286 137.901 17.5914C137.442 17.0442 136.877 16.6287 136.204 16.3449C135.541 16.0612 134.833 15.9092 134.079 15.8889C133.345 15.8788 132.662 15.9903 132.03 16.2233C131.408 16.4463 130.904 16.7706 130.516 17.1962C130.139 17.6219 129.95 18.1184 129.95 18.6859C129.95 19.223 130.114 19.6639 130.44 20.0084C130.766 20.3429 131.169 20.6114 131.648 20.8141C132.137 21.0067 132.631 21.1688 133.131 21.3005L137.075 22.395C137.616 22.5369 138.222 22.7295 138.895 22.9727C139.568 23.2159 140.215 23.5554 140.837 23.9912C141.458 24.4269 141.968 24.9995 142.366 25.7089C142.773 26.4183 142.977 27.3202 142.977 28.4147C142.977 29.5497 142.738 30.548 142.259 31.4094C141.79 32.2606 141.153 32.97 140.347 33.5375C139.542 34.105 138.62 34.5307 137.58 34.8144C136.55 35.0982 135.47 35.2401 134.339 35.2401Z" fill="#3A3A3A"/>
<path d="M149.803 34.784L144.758 18.3363L148.366 18.3667L151.592 28.9012L154.864 18.3667H157.968L161.225 28.9012L164.466 18.3667H168.074L163.029 34.784H160.154L156.408 23.4895L152.678 34.784H149.803Z" fill="#3A3A3A"/>
<path d="M174.525 35.2401C173.333 35.2401 172.324 35.0171 171.498 34.5712C170.672 34.1152 170.046 33.5122 169.618 32.7623C169.2 32.0123 168.991 31.1864 168.991 30.2845C168.991 29.494 169.123 28.7846 169.388 28.1563C169.653 27.5178 170.061 26.9706 170.611 26.5146C171.162 26.0484 171.875 25.6684 172.752 25.3745C173.414 25.1617 174.189 24.9691 175.076 24.7968C175.973 24.6245 176.941 24.4675 177.981 24.3256C179.031 24.1736 180.127 24.0114 181.268 23.8391L179.953 24.584C179.963 23.449 179.709 22.6129 179.189 22.0758C178.669 21.5387 177.792 21.2701 176.559 21.2701C175.815 21.2701 175.096 21.4424 174.403 21.787C173.71 22.1315 173.226 22.7244 172.951 23.5655L169.587 22.5166C169.995 21.1283 170.769 20.0135 171.911 19.1724C173.063 18.3312 174.612 17.9107 176.559 17.9107C178.027 17.9107 179.316 18.1488 180.427 18.6251C181.549 19.1014 182.379 19.8818 182.919 20.9661C183.215 21.5438 183.393 22.1366 183.455 22.7447C183.516 23.3426 183.546 23.9962 183.546 24.7056V34.784H180.32V31.2269L180.855 31.8046C180.111 32.9903 179.24 33.8618 178.241 34.4192C177.252 34.9664 176.014 35.2401 174.525 35.2401ZM175.259 32.3214C176.095 32.3214 176.809 32.1745 177.4 31.8806C177.991 31.5867 178.46 31.2269 178.807 30.8013C179.163 30.3757 179.403 29.9754 179.525 29.6004C179.719 29.1342 179.826 28.6022 179.846 28.0043C179.877 27.3962 179.892 26.9047 179.892 26.5298L181.024 26.8642C179.913 27.0365 178.959 27.1885 178.164 27.3202C177.369 27.452 176.686 27.5786 176.116 27.7003C175.545 27.8117 175.04 27.9384 174.602 28.0803C174.174 28.2323 173.812 28.4096 173.516 28.6123C173.221 28.815 172.991 29.0481 172.828 29.3116C172.675 29.5751 172.599 29.8842 172.599 30.2389C172.599 30.6442 172.701 31.004 172.905 31.3181C173.109 31.6222 173.404 31.8654 173.792 32.0478C174.189 32.2302 174.678 32.3214 175.259 32.3214Z" fill="#3A3A3A"/>
<path d="M195.462 35.2401C193.852 35.2401 192.501 34.86 191.41 34.1C190.32 33.3399 189.499 32.3062 188.949 30.9989C188.398 29.6815 188.123 28.207 188.123 26.5754C188.123 24.9235 188.398 23.4439 188.949 22.1366C189.499 20.8293 190.305 19.8007 191.365 19.0508C192.435 18.2907 193.755 17.9107 195.325 17.9107C196.884 17.9107 198.235 18.2907 199.376 19.0508C200.528 19.8007 201.42 20.8293 202.052 22.1366C202.684 23.4338 203 24.9134 203 26.5754C203 28.2171 202.689 29.6916 202.067 30.9989C201.446 32.3062 200.569 33.3399 199.438 34.1C198.306 34.86 196.981 35.2401 195.462 35.2401ZM187.496 42.0806V18.3667H190.753V29.8892H191.212V42.0806H187.496ZM194.896 31.9566C195.855 31.9566 196.645 31.7184 197.266 31.2421C197.888 30.7658 198.347 30.1223 198.642 29.3116C198.948 28.4907 199.101 27.5786 199.101 26.5754C199.101 25.5822 198.948 24.6803 198.642 23.8695C198.337 23.0487 197.863 22.4001 197.221 21.9238C196.578 21.4374 195.763 21.1941 194.774 21.1941C193.836 21.1941 193.072 21.4222 192.481 21.8782C191.89 22.3241 191.451 22.9524 191.166 23.7631C190.891 24.5637 190.753 25.5011 190.753 26.5754C190.753 27.6395 190.891 28.5769 191.166 29.3876C191.451 30.1983 191.895 30.8317 192.496 31.2877C193.108 31.7336 193.908 31.9566 194.896 31.9566Z" fill="#3A3A3A"/>
</svg>
