<svg xmlns="http://www.w3.org/2000/svg" width="81" height="81" fill="#40b385" xmlns:v="https://vecta.io/nano"><path d="M9.496 80.373h2.551c2.411-2.42 4.869-4.715 7.594-6.777-1.453-.418-3.128.342-4.387 1.179-2.18 1.448-4.344 3.395-5.758 5.598z"/><path d="M47.13 42.225c1.686 2.056 2.368 4.739 2.888 7.346.88 4.417 1.43 8.94 1.029 13.426-.192 2.143-.683 4.424-2.26 5.889-1.261 1.171-3.009 1.626-4.684 2.022-9.148 2.16-18.166 2.944-27.511 3.964l.877-1.754c8.212-.797 15.839-1.18 23.309-3.164 2.017-.536 4.112-1.216 5.529-2.748 1.671-1.806 2.069-4.432 2.167-6.89a41.22 41.22 0 0 0-1.27-11.924c-.508-1.972-1.181-3.94-2.378-5.587-1.015-1.395-3.586-2.371-5.113-3.092.542-.718 3.796.072 4.486.35 1.135.457 2.156 1.218 2.932 2.163zm3.323.466c-.439.388.44.397 1.398.347a2.77 2.77 0 0 0 2.318-1.486l2.531-4.453c.13-.314.239-.277.264-.615s-.695-.294-.958-.517c-2.007 2.252-3.921 4.203-5.553 6.724z"/><path d="M55.472 38.011c5.057 1.544 9.808 1.683 14.431-.201s8.335-5.526 9.59-10.242c.423-1.588.864-3.386.428-4.972-.957 4.664-3.65 9.285-7.834 11.751-2.306 1.359-5.033 2.086-7.674 2.539-2.71.465-5.885-.084-8.514-.78a6.03 6.03 0 0 1-.508 2.245M42.61 22.096c-.502 5.099 2.081 10.33 6.6 12.982-.151-.759-.568-1.375-.562-2.148-3.434-3.431-4.845-8.654-3.584-13.272s7.721-9.456 12.45-10.771c-1.504.418-4.851 1.16-6.316 1.795s-3.399 1.978-4.551 3.062c-2.387 2.248-3.719 5.122-4.037 8.352zM22.093 39.154c.815-.623 1.417-1.451 2.232-2.074-.424-3.09-.573-6.067-.293-9.173-.674.638-1.652 1.135-2.578 1.076.127 3.297.513 6.874.64 10.171z"/><path d="M35.509 1.934c1.15 1.026 2.017 2.445 2.725 3.733l4.064 7.398c.503.916 1.023 1.916.874 2.95-.224 1.55-1.8 2.473-3.203 3.168 1.008-.574 1.402-1.884 1.239-3.033s-.772-2.179-1.369-3.174L35.894 6.39a16.82 16.82 0 0 1-1.374-2.842c-.307-.815-.973-1.499-1.77-1.844a3.37 3.37 0 0 0-2.933.147C30.301.859 31.53.392 32.625.537c1.129.15 2.077.676 2.885 1.397zM9.627 80.511c-.147 0-.297-.035-.434-.107a.93.93 0 0 1-.481-1.022l1.197-4.715 1.095-4.266c-1.144-2.139-2.574-5.168-3.227-8.003-.752-3.251-.331-6.374 1.184-8.796 1.604-2.562 4.352-4.274 7.081-5.742a97.93 97.93 0 0 1 18.03-7.483c2.66-.803 5.468-1.424 7.99-.541 2.641.93 4.533 3.316 5.787 7.294a39.5 39.5 0 0 1 1.719 14.755c-.15 2.09-.524 4.471-2.169 6.283-1.922 2.115-4.822 2.738-7.875 3.237-4.943.804-13.331 1.947-18.344 2.631l-4.081.564c-2.34 1.417-4.564 3.257-6.795 5.618-.182.193-.429.294-.68.294zm29.706-39.24c-1.568 0-3.218.444-4.718.897a96.02 96.02 0 0 0-17.684 7.34c-2.332 1.255-4.94 2.787-6.382 5.089-1.25 1.995-1.587 4.616-.948 7.38s2.101 5.79 3.215 7.837a.94.94 0 0 1 .093.641c-.344 1.627-.776 3.195-1.195 4.711l-.396 1.445c1.621-1.462 3.265-2.686 4.971-3.705.201-.121.201-.121 4.644-.725l18.295-2.624c2.713-.442 5.274-.978 6.789-2.647 1.263-1.39 1.562-3.389 1.689-5.16a37.61 37.61 0 0 0-1.638-14.058c-1.065-3.379-2.576-5.37-4.623-6.092-.67-.235-1.381-.33-2.109-.33z"/><path d="M21.734 39.266a.92.92 0 0 1-.35-.068c-1.443-.58-2.789-1.321-4.092-2.037-1.364-.75-2.658-1.461-3.9-1.896l-1.121.658a3.37 3.37 0 0 1-4.465-.991c-1.999-2.925-4.25-6.659-6.884-11.414-.843-1.522-.391-3.415 1.052-4.402C12.431 11.966 18.889 7.61 29.999 1.214a3.35 3.35 0 0 1 2.593-.327c.873.243 1.594.812 2.03 1.602 1.557 2.813 3.529 6.094 5.269 8.988l1.779 2.97c.89 1.497.498 3.398-.91 4.422-4.403 3.201-7.323 4.775-10.703 6.598-2.045 1.103-4.352 2.346-7.306 4.126-.43 2.641-.472 6.108-.093 8.596.051.333-.08.667-.344.875a.94.94 0 0 1-.581.202zm-8.451-5.959a.95.95 0 0 1 .273.04c1.544.472 3.046 1.298 4.638 2.173.792.435 1.6.88 2.426 1.285-.204-2.575-.077-5.587.362-7.961.049-.263.206-.492.435-.631 3.17-1.923 5.603-3.235 7.752-4.393 3.322-1.791 6.191-3.337 10.491-6.464a1.47 1.47 0 0 0 .402-1.951l-1.774-2.962-5.303-9.047c-.193-.347-.509-.598-.895-.705a1.49 1.49 0 0 0-1.158.146c-11.05 6.361-17.482 10.702-27.9 17.826-.642.439-.844 1.276-.472 1.949 2.569 4.639 4.854 8.428 6.791 11.265.435.634 1.301.82 1.975.43l1.479-.869a.93.93 0 0 1 .477-.13zm37.332 9.974c-.144 0-.29-.026-.43-.079-.453-.172-.756-.592-.771-1.07L47.597 33a16.33 16.33 0 0 1-2.033-2.213c-3.065-4.054-3.389-9.637-.829-14.226 1.772-3.198 4.825-5.677 8.824-7.167 3.84-1.451 8.222-1.835 12.338-1.078 2.185.395 4.203 1.101 5.998 2.097 4.221 2.347 7.282 6.532 7.992 10.923.249 1.489.223 2.969-.081 4.393-1.171 5.54-6.407 10.233-13.029 11.679a24.09 24.09 0 0 1-6.393.535 22.88 22.88 0 0 1-3.261-.395 9.08 9.08 0 0 1-.367-.08c-.264-.06-.814-.19-.937-.096-.339.246-.855.936-1.197 1.392l-.241.321c-.318.424-.614.842-.906 1.252-.61.858-1.187 1.669-1.945 2.538-.253.269-.582.408-.916.408zm.645-1.414l.015.088a.29.29 0 0 0-.015-.088zm10.435-32.06c-2.568 0-5.133.453-7.479 1.339-3.579 1.334-6.29 3.521-7.844 6.325-2.201 3.943-1.931 8.725.685 12.185.586.773 1.258 1.49 1.994 2.131a.94.94 0 0 1 .295.481c.801 3.235 1.301 5.882 1.694 8.238.31-.411.606-.828.912-1.256l.94-1.298.234-.311c.457-.611 1.026-1.372 1.592-1.783.813-.593 1.803-.367 2.462-.215l.306.067c.926.184 1.905.302 2.999.362a22.12 22.12 0 0 0 5.894-.494c5.916-1.293 10.578-5.407 11.6-10.239.254-1.194.275-2.44.065-3.701-.621-3.843-3.323-7.516-7.053-9.59-1.616-.896-3.441-1.532-5.424-1.892a21.49 21.49 0 0 0-3.869-.349zM8.2 24.232c-.303 0-.601-.147-.781-.419-.285-.431-.168-1.011.263-1.297l17.567-11.64c.431-.286 1.011-.168 1.297.263s.168 1.011-.263 1.297L8.716 24.076a.93.93 0 0 1-.515.156zm3.274 5.379c-.3 0-.593-.144-.775-.41-.291-.428-.18-1.01.247-1.3 3.683-2.505 6.761-4.358 9.233-5.847l.475-.286c.442-.267 1.018-.124 1.284.319s.124 1.018-.319 1.285l-.474.286c-2.454 1.478-5.507 3.315-9.147 5.791a.93.93 0 0 1-.525.162zm41.264-4.329a2.24 2.24 0 0 1-1.389-.497c-.465-.372-.762-.907-.812-1.468-.055-.602.173-1.208.626-1.66.367-.366.834-.581 1.316-.614.367-.143.773-.162 1.144-.046.773.245 1.331 1.027 1.36 1.9.038 1.155-.849 2.217-1.977 2.367-.089.012-.179.018-.269.018zm-.105-1.892a.28.28 0 0 0 .128.019c.149-.02.3-.185.341-.353a.94.94 0 0 1-.469.335zm8.636 1.972c-.492 0-.987-.175-1.392-.498a2.15 2.15 0 0 1-.81-1.467c-.054-.604.175-1.209.63-1.662.366-.365.832-.579 1.314-.612.369-.144.777-.163 1.144-.046.773.246 1.331 1.027 1.36 1.9.038 1.156-.849 2.218-1.978 2.367a2.08 2.08 0 0 1-.268.018zm-.105-1.892c.045.016.091.024.127.019.149-.02.301-.185.342-.353a.94.94 0 0 1-.469.335zm8.318 2.529a2.24 2.24 0 0 1-1.392-.498 2.15 2.15 0 0 1-.81-1.467c-.054-.604.175-1.21.63-1.663.366-.365.832-.579 1.314-.612a1.73 1.73 0 0 1 1.144-.045c.773.246 1.331 1.027 1.36 1.9.038 1.155-.849 2.217-1.978 2.368a2 2 0 0 1-.268.017zm-.105-1.892a.28.28 0 0 0 .127.019c.149-.02.3-.185.341-.353-.116.156-.279.274-.468.334zM17.64 64.451a2.47 2.47 0 0 1-.722-.108 2.54 2.54 0 0 1-1.577-1.366c-.501-1.139-.089-2.597.959-3.393a.93.93 0 0 1 1.111-.015 1.65 1.65 0 0 1 .607-.185c.68-.073 1.35.296 1.717.931.235.407.336.891.306 1.476-.054 1.021-.495 1.869-1.214 2.324a2.21 2.21 0 0 1-1.188.336zm.535-2.842l-.029.267a.94.94 0 0 1-.411.695c.034-.007.066-.02.093-.037.189-.121.324-.451.345-.841l.002-.084zm8.714-.347a2.47 2.47 0 0 1-.721-.108 2.54 2.54 0 0 1-1.577-1.366c-.502-1.138-.09-2.597.959-3.393.334-.255.787-.247 1.111-.015a1.63 1.63 0 0 1 .604-.185c.696-.074 1.35.295 1.718.929.235.409.338.908.306 1.481-.054 1.019-.495 1.867-1.214 2.321-.351.223-.763.336-1.187.336zm.534-2.838l-.028.261a.93.93 0 0 1-.411.697.34.34 0 0 0 .091-.036c.189-.121.324-.451.345-.841l.002-.081zm9.193.287a2.5 2.5 0 0 1-.72-.108c-.704-.215-1.294-.725-1.578-1.367-.503-1.138-.09-2.597.959-3.393.336-.255.787-.247 1.111-.015a1.65 1.65 0 0 1 .604-.185c.695-.076 1.35.295 1.718.929.235.409.337.908.306 1.481-.054 1.021-.496 1.868-1.215 2.323-.35.222-.76.336-1.186.336zm.534-2.839l-.028.261a.93.93 0 0 1-.411.697c.033-.007.063-.02.09-.036.19-.119.325-.45.346-.841l.002-.081zm3.171-16.41c-2.037-.212-4.186.292-6.248.915a97.96 97.96 0 0 0-18.03 7.483c-2.73 1.469-5.478 3.181-7.081 5.742-3.238 5.171-.836 11.418 2.042 16.799-.665 3.034-1.635 5.867-2.292 8.981-.125.587.328 1.13.915 1.13.162 0 .314-.056.456-.137h1.964c1.995-2.003 4.032-3.911 6.216-5.681 8.75-.938 17.239-1.754 25.84-3.785 1.675-.395 3.423-.851 4.684-2.022 3.78-3.511 2.236-14.268 1.231-19.315-.794-3.983-2.045-7.988-5.819-9.51-.555-.224-2.751-.766-3.878-.6zM10.549 54.596c1.442-2.302 4.049-3.834 6.382-5.089 5.609-3.019 11.56-5.489 17.684-7.34 1.5-.453 3.15-.897 4.718-.897 3.76 0 5.579 2.762 6.733 6.422a37.63 37.63 0 0 1 1.638 14.058c-.407 5.685-2.713 6.866-8.478 7.806-9.588 1.561-22.476 3.072-22.938 3.347-1.707 1.02-3.351 2.243-4.972 3.706 1.604-5.94 1.772-6.292 1.499-6.797-2.583-4.748-5.125-10.656-2.267-15.217z"/><path d="M47.874 34.168c1.876 8.056 1.169 8.602 2.31 9.035.401.154.745.078 1.088-.145l.577-.02a2.77 2.77 0 0 0 2.318-1.486c.471-.909 1.347-2.224 1.982-3.357 4.803 1.352 9.338 1.413 13.753-.386 4.623-1.884 8.335-5.527 9.59-10.242.37-1.392.755-2.944.551-4.375-.146-11.535-14.058-18.496-26.484-13.799-2.173.81-4.055 1.921-5.616 3.272-.483.365-.931.734-1.296 1.078-6.005 5.655-5.233 15.454 1.227 20.424zm23.113-22.119c4.844 2.694 8.07 8.198 6.989 13.292-1.246 5.892-8.058 11.211-17.494 10.733-2.232-.122-3.096-.394-3.305-.429-.658-.152-1.649-.379-2.462.214-.958.696-2.607 3.229-3.676 4.648a105.19 105.19 0 0 0-1.694-8.238.93.93 0 0 0-.295-.481 14.28 14.28 0 0 1-1.994-2.131c-2.616-3.46-2.886-8.242-.685-12.185 4.268-7.703 16.8-9.754 24.616-5.422zM7.807 34.932a3.37 3.37 0 0 0 4.465.991l1.121-.658c2.235.783 7.354 4.002 8.341 4.002a.94.94 0 0 0 .581-.202c.096-.076.152-.181.211-.284.61-.557 1.137-1.193 1.799-1.7-.38-2.768-.521-5.45-.349-8.21 7.068-4.159 10.136-5.167 16.784-10 .129-.094.241-.203.353-.311 1.011-.618 1.895-1.413 2.058-2.544.149-1.034-.371-2.034-.874-2.95-4.38-7.973-5.127-9.648-6.788-11.131-.808-.721-1.755-1.247-2.885-1.397a3.03 3.03 0 0 0-1.831.358c-.274.076-.542.174-.794.319C18.889 7.61 12.431 11.966 1.975 19.117.532 20.104.08 21.996.923 23.518c2.633 4.755 4.885 8.489 6.884 11.414zm-4.774-14.27c10.418-7.124 16.85-11.465 27.9-17.826a1.49 1.49 0 0 1 1.158-.146c.385.107.702.358.895.705 2.147 3.88 5.055 8.603 7.078 12.009a1.47 1.47 0 0 1-.402 1.951c-6.937 5.044-10.344 6.065-18.242 10.857-.229.139-.386.368-.435.631-.439 2.374-.565 5.386-.362 7.961-2.436-1.193-4.733-2.745-7.064-3.457a.94.94 0 0 0-.749.09l-1.479.869c-.674.39-1.54.204-1.975-.43-1.938-2.837-4.222-6.627-6.791-11.265a1.48 1.48 0 0 1 .472-1.949zm5.167 3.57c.534 0-.445.409 18.083-11.796.431-.285.548-.866.263-1.297s-.865-.55-1.297-.263L7.682 22.516a.94.94 0 0 0 .518 1.716zm12.455-2.464l-.475.286c-2.473 1.489-5.551 3.343-9.233 5.848-.428.29-.539.873-.247 1.3a.94.94 0 0 0 1.3.247c3.64-2.476 6.692-4.314 9.147-5.791l.474-.286c.444-.267.586-.842.319-1.285s-.842-.585-1.284-.319zm31.825-.725c-.483.033-.949.249-1.316.614-1.529 1.527-.065 3.856 1.844 3.608 1.127-.15 2.014-1.212 1.977-2.367-.044-1.308-1.248-2.343-2.504-1.855zm.154 2.347a.94.94 0 0 0 .469-.335c-.046.188-.242.417-.469.335zm8.635 1.972c1.245 0 2.287-1.133 2.246-2.385-.044-1.313-1.252-2.342-2.504-1.855-1.117.076-2.046 1.126-1.944 2.274.098 1.094 1.097 1.965 2.202 1.965zm.364-2.227c-.047.19-.246.416-.469.335a.94.94 0 0 0 .469-.335zm7.849 2.864c1.254 0 2.287-1.142 2.246-2.385-.044-1.311-1.252-2.342-2.504-1.855-1.118.076-2.046 1.127-1.944 2.275.05.56 1.095 1.966 2.202 1.964zm.363-2.226c-.046.188-.243.416-.468.334.189-.06.352-.178.468-.334zM20.042 61.791c.03-.585-.071-1.069-.306-1.476-.476-.824-1.462-1.199-2.324-.746a.93.93 0 0 0-1.111.015c-1.048.796-1.46 2.253-.959 3.393.955 2.166 4.529 2.078 4.7-1.186zm-1.867-.182c0 .341-.131.895-.44.962.226-.152.404-.72.44-.962zm9.901-.683c1.26-.796 1.511-2.752.908-3.802-.501-.863-1.492-1.18-2.323-.743-.324-.233-.777-.24-1.111.015-1.049.796-1.461 2.254-.959 3.393.571 1.294 2.28 1.904 3.485 1.138zm-.653-2.502c0 .328-.121.878-.439.958.436-.294.403-.715.439-.958zm11.593-2.372c.108-1.947-1.444-2.847-2.628-2.224-.324-.233-.775-.24-1.111.015-1.049.796-1.462 2.254-.959 3.393.962 2.175 4.528 2.074 4.699-1.183zm-1.867-.18c0 .328-.126.888-.439.958.227-.152.403-.716.439-.958z"/></svg>