<svg xmlns="http://www.w3.org/2000/svg" width="71" height="81" fill="#40b385" xmlns:v="https://vecta.io/nano"><path d="M70.053 78.129C64.09 64.246 58.661 50.184 53.589 35.945c-.534-1.424-2.136-1.602-3.115-.89-1.869.356-3.649.979-5.429 1.78 1.068-3.115 1.958-6.052 1.869-9.523-.089-3.916-.89-7.832-2.225-11.481-1.335-3.471-3.115-6.586-5.429-9.434C37.124 3.817 34.098.791 30.539.524c-2.759-.267-2.759 3.56-.623 4.45 3.204 1.246 5.429 2.67 7.654 5.429 2.047 2.492 3.56 5.34 4.628 8.366 2.047 5.518 3.115 13.172 1.246 18.956-1.424.801-2.759 1.78-3.916 2.848-.445-4.717-5.429-9.523-8.9-11.481-1.691-.89-4.005-2.136-6.408-2.848-.178-.356-.445-.623-.623-.979-3.916-5.34-11.747-8.544-18.155-6.319-2.492.89-1.513 4.539 1.068 4.005 4.361-.979 8.633-.356 12.015 2.581-1.869.267-3.471 1.068-4.539 2.937-2.581 4.539.979 12.548 6.764 11.392 4.895-.979 5.963-5.34 5.073-9.523 1.335.445 2.581.979 3.293 1.335 2.136 1.068 4.005 2.403 5.429 4.272 1.602 2.047 2.314 4.094 3.115 6.408-.445.445-.979.979-1.424 1.513-1.424 1.691-3.026 4.005-4.272 6.497-10.146-5.963-26.61-.356-29.636 11.303-.623 2.314 2.937 4.005 4.005 1.691 2.314-5.073 5.251-9.078 10.858-10.858 4.717-1.424 9.345-.801 14.061-.712-1.157 2.759-1.691 5.696-.89 8.188.089.178.089.267.178.445 0 .356.089.623.445.801 3.115 1.335 6.408 2.225 9.523 3.738 1.602.712 3.115 1.513 4.628 2.403.178.801.445 1.602.712 2.403.623 1.424 2.403.89 2.937-.267.267.178.534.356.801.445l4.094 2.492c.267 1.869.712 3.649 1.602 5.34.979 1.869 3.56.534 3.204-1.335l-.267-1.246c3.115 1.869 6.319 3.649 9.612 5.162 1.602.623 2.937-.712 2.225-2.225zM19.948 35.945c-1.602.356-2.492-1.335-2.848-2.581-1.068-3.738 1.335-4.539 4.272-4.094.534 1.068.801 2.225.801 3.382.089 1.335-.712 3.026-2.225 3.293zm28.301 12.549c-1.157 2.225-1.958 4.717-2.492 7.12s-.979 5.251-.979 8.01c-3.471-1.78-7.12-3.382-10.858-3.916v-.178c0-5.251 2.225-10.146 5.607-14.15 2.937-3.471 6.675-5.785 10.502-8.188l2.225 5.963c-1.602 1.602-2.937 3.115-4.005 5.34zm5.429 20.202c-1.068-.623-2.136-1.246-3.204-1.958-.534-.267-.979-.623-1.513-.89l-.267-2.937c0-2.314.089-4.628.534-6.853.712-3.738 2.136-7.743 3.738-11.303l4.895 12.371c-2.403 3.293-3.916 7.387-4.183 11.57zm3.827 2.314c-.178-1.424-.356-2.759-.267-4.272.089-2.492.623-4.984 1.424-7.387l6.764 16.197a139.85 139.85 0 0 1-7.921-4.539z"/><path d="M53.856 28.914c.979-.801 2.136-1.335 3.382-1.602 1.335-.267.712-2.314-.534-2.047-1.602.356-3.026 1.157-4.272 2.136-.979.979.445 2.403 1.424 1.513zM26.89 16.544c.623 1.157.712 3.026.979 4.272s.623 2.492 1.246 3.649c.356.623 1.513.534 1.602-.178.267-1.246.267-2.581.178-3.827-.089-1.335-.623-3.115-.356-4.361.801-3.738-5.429-2.759-3.649.445zm23.228-7.743c-.89-.178-1.691-.356-2.67-.356-1.068-.089-1.246 1.335-.534 1.78.712.534 1.424.89 2.136 1.246.801.356 1.602.979 2.581.89 1.246-.089 2.136-1.691 1.068-2.67-.623-.534-1.602-.623-2.581-.89zM3.216 45.379c1.157-.178 2.225-.801 3.382-1.157 1.068-.267 2.136-.445 3.115-.979.712-.356.623-1.424 0-1.78-2.136-1.246-5.963-.979-8.188 0-2.225 1.157-.445 4.361 1.691 3.916zm17.8 22.605c-.089-1.602.356-2.848.623-4.45.267-1.424-1.424-2.67-2.581-1.513-1.513 1.513-2.136 3.827-2.314 5.874-.178 2.759 4.361 2.848 4.272.089z"/></svg>