<svg xmlns="http://www.w3.org/2000/svg" width="77" height="81" fill="#40b385" xmlns:v="https://vecta.io/nano"><path d="M75.561 11.756c-1.298-1.548-6.646-2.39-15.881-2.846-.172-.911-.275-1.565-.309-1.874a1.96 1.96 0 0 0-.86-1.376c-.911-.653-2.932-.86-6.388-.602l-.456-1.376A4.63 4.63 0 0 0 46.06.673c-7.85 2.132-19.69 6.251-26.044 8.512C3.43 15.1 3.43 15.152 3.602 16.416c.086.688.533 2.528 1.238 5.159-.817.301-1.47.559-1.763.679C.069 23.484-.361 25.926.224 27.8s2.579 4.007 4.437 4.007a2.64 2.64 0 0 0 .524-.06c.378-.095 1.152-.309 2.347-.662l1.72 5.855-2.313.679c-2.304.671-3.37 2.7-2.717 5.159.593 2.201 2.459 4.299 4.411 4.299a2.46 2.46 0 0 0 .61-.077 54.65 54.65 0 0 0 2.829-.782l.972 3.181.8 2.579a44.02 44.02 0 0 0-1.986.533 4.42 4.42 0 0 0-3.035 5.606c.49 2.072 2.167 3.964 4.419 3.964a4.44 4.44 0 0 0 .86-.095c.86-.189 1.788-.413 2.631-.645l1.668 5.211-1.978.576c-.745.199-1.414.613-1.924 1.192a3.9 3.9 0 0 0-.939 2.059c-.143.982-.026 1.985.339 2.908a5.69 5.69 0 0 0 1.742 2.354 2.96 2.96 0 0 0 1.72.55c.516-.003 1.021-.146 1.462-.413a12.77 12.77 0 0 1 2.433-.86 29.23 29.23 0 0 0 2.055 4.996 1.25 1.25 0 0 0 1.169.594c.976-.059 1.943-.23 2.88-.507l18.692-3.293 17.962 2.287a2.14 2.14 0 0 0 1.72-.439c3.293-2.485 5.855-17.841 9.458-56.653l.86-8.598a1.92 1.92 0 0 0-.073-.828c-.084-.267-.227-.513-.417-.719zm-5.89.576l-8.753 2.992-.344-1.771 4.884-1.677c1.591.129 3.009.275 4.213.456zm-8.71 19.776l-.542-1.72.722-.249.335 1.849-.516.12zm.671.679l.327 1.788-.189.06-.55-1.72.413-.129zm-1.479-3.207l-.55-1.72 1.049-.352.335 1.78-.834.292zm3.13-17.901l-2.88.989-.224-1.169 3.104.215v-.034zM60.488 26.7l-1.144.387-.55-1.72 1.359-.473.335 1.806zm-.499-2.64l-1.462.499-.55-1.72 1.668-.576.344 1.797zm-.499-2.631l-1.771.611-.559-1.72 1.977-.679.353 1.788zm-.86-4.402l.344 1.771-2.064.714-.559-1.72 2.278-.765zm-.198-1.015v.163l-2.382.817-.559-1.72 2.58-.86c.137.499.241 1.04.352 1.599h.009zm-.482-2.468l-2.7.92-.559-1.72 2.915-.997a52.55 52.55 0 0 0 .335 1.797h.009zm-.507-2.631l-3.018 1.032-.568-1.72 3.25-1.118a48.11 48.11 0 0 0 .327 1.806h.009zm-3.689-3.439a8.65 8.65 0 0 1 3.104.198c0 .163.06.37.095.602l-3.362 1.152-.559-1.72.722-.232zM8.005 28.213l-3.379.98c-.525-.231-.986-.587-1.343-1.036s-.598-.979-.704-1.543c-.103-.576-.069-1.419 1.444-2.038 2.502-.989 5.726-2.046 6.749-2.046h.095a5.01 5.01 0 0 1 2.339 3.439c0 .37-.06.748-.929.997l-4.273 1.247zm.619 16.336c-.327.077-1.53-.946-1.926-2.416-.43-1.642.533-1.917.946-2.038l4.299-1.273 3.336-.954h.249c.498.06.966.269 1.342.601s.643.77.765 1.256c.327 1.161-.267 2.124-1.668 2.708-.619.138-5.726 1.685-7.343 2.081v.034zm4.953 14.952c-1.092.232-1.995-.86-2.27-1.943a1.89 1.89 0 0 1 1.247-2.502 46.22 46.22 0 0 1 6.879-1.419c.507-.069.86-.129 1.066-.172.436.156.827.419 1.136.764s.527.762.635 1.213c.069.301.275 1.238-1.487 1.96a63.02 63.02 0 0 1-7.205 2.098zm3.912 14.084c-.095.052-.172.103-.387 0a3.09 3.09 0 0 1-.988-2.726 1.34 1.34 0 0 1 1.032-1.178l3.044-.86 4.204-1.187a2.84 2.84 0 0 1 1.564 1.969c.077.507 0 1.238-1.281 1.823-1.169.249-5.683 1.247-7.188 2.132v.026zm37.539 1.625l6.019-.98-3.697 1.264-2.322-.284zm9.682.559l-1.496.516c-1.006-.155-2.347-.335-3.947-.542l6.285-2.158a14.82 14.82 0 0 1-.843 2.158v.026zm1.453-6.105l-6.191 2.115-10.773 1.797 17.084-5.847a19.03 19.03 0 0 1-.12 1.909v.026zm.052-5.778l-10.816-32.26a.43.43 0 0 0-.783.352c1.72 3.998 9.054 26.731 10.816 32.243l-1.505.55c-1.333-4.987-6.879-20.24-7.584-22.183a.43.43 0 0 0-.546-.247.43.43 0 0 0-.262.539c2.734 7.498 6.612 18.52 7.592 22.183-20.352 7.429-34.814 12.321-38.029 12.871-.301-.679-.782-1.943-1.376-3.654l1.616-.361.232-.069c2.958-1.23 3.353-3.62 2.743-5.443-.662-1.986-2.691-3.861-4.505-3.388l-2.923.8-1.668-5.159c1.419-.447 2.399-.808 2.485-.86h.043c3.026-1.238 3.508-3.56 2.949-5.322-.636-2.064-2.812-3.998-4.755-3.577-.163 0-.456.077-.86.138a57.49 57.49 0 0 0-2.743.43l-1.84-6.019 2.253-.679h.112c3.224-1.315 3.757-3.955 3.233-5.821-.602-2.141-2.726-4.101-5.253-3.689-.482.077-1.358.335-3.173.86l-1.72-5.847 3.052-.86a3.49 3.49 0 0 0 2.76-3.86c-.249-2.442-2.7-5.434-4.652-5.606-1.326.045-2.638.298-3.886.748-.421-1.573-.739-2.837-.92-3.689C10.98 15.127 34.341 6.52 46.757 3.141c.505-.136 1.043-.074 1.503.174a2.05 2.05 0 0 1 .973 1.159c3.517 10.567 15.184 45.922 17.833 57.212a2.03 2.03 0 0 1-.851 2.175v.026zm2.45-6.328l-.473-1.72.739-.249-.267 1.943v.026zm.395-2.915l-1.109.378-.189-.688-.155-1.092 1.72-.585-.267 1.96v.026zm.387-2.94l-1.96.671-.267-1.806 2.468-.86-.241 1.969v.026zm.361-2.949l-2.708.929-.275-1.806 3.216-1.101-.232 1.977zm.344-2.923l-3.439 1.187-.284-1.797 3.972-1.358a50.9 50.9 0 0 0-.258 1.969h.009zm.327-2.915l-4.222 1.444-.301-1.797 4.712-1.616a52.61 52.61 0 0 1-.198 1.969h.009zm.318-2.915l-4.987 1.72-.301-1.788 5.486-1.926-.198 1.995zm.301-2.915l-5.743 1.969-.31-1.788 6.251-2.141-.206 1.96h.009zm.292-2.898l-6.5 2.218-.318-1.78 7.007-2.407c-.052.628-.129 1.307-.198 1.969h.009zm.284-2.906l-7.257 2.485-.327-1.78 7.738-2.665a39.71 39.71 0 0 1-.163 1.96h.008zm.275-2.897l-8.022 2.743-.327-1.78 8.529-2.923-.189 1.96h.009zm.275-2.906l-8.779 3.009-.335-1.78 9.277-3.181-.172 1.952h.009zm.344-3.809l-.086.911-9.552 3.276-.344-1.78 10.06-3.439a23.45 23.45 0 0 1-.077 1.032zm.181-1.986l-10.318 3.525-.335-1.78 10.825-3.706-.172 1.969v-.009zm.275-2.906l-11.083 3.809-.344-1.78 11.65-4.015a38.99 38.99 0 0 0-.224 1.995v-.009zm.301-2.906l-11.9 4.084-.344-1.78 10.318-3.542a6.51 6.51 0 0 1 1.96.645c.017.172-.009.378-.034.602v-.009zm-43.695-.095c-1.143.378-11.263 3.8-12.794 5.159-.189.169-.325.388-.392.632s-.062.502.014.744c.92 2.846 3.388 10.636 3.714 12.407.232 1.29 1.591 1.47 2.485 1.47h.567c3.113-.198 9.114-1.866 13.68-3.439 10.017-3.439 10.103-4.935 10.154-5.744.146-2.631-2.872-12.226-4.368-13.877-.61-.705-1.186-1.341-13.06 2.648zm-7.059 17.815c-.602-2.519-2.579-8.727-3.345-11.177 3.714-1.866 18.744-6.879 21.796-7.265 1.092 1.909 3.388 9.105 3.439 11.392-2.029 2.046-18.434 7.231-21.891 7.05zm30.256 3.087a.43.43 0 0 0-.57-.244.43.43 0 0 0-.222.579l1.72 4.144a.43.43 0 0 0 .396.258.41.41 0 0 0 .172 0 .42.42 0 0 0 .259-.397.42.42 0 0 0-.036-.163l-1.72-4.179z"/></svg>