<svg xmlns="http://www.w3.org/2000/svg" width="80" height="81" fill="#40b385" xmlns:v="https://vecta.io/nano"><path d="M6.476 53.46h0z"/><path d="M79.394 59.921l.085-2.046c.016-.967-.226-2.295-1.278-2.643-1.244-.412-2.453-.436-3.719-.408.106-1.05.491-2.042.559-3.099.041-.644-.031-1.223.097-1.864.127-.635.242-1.225.235-1.881-.013-1.216.016-2.288.223-3.492a24.73 24.73 0 0 0 .366-4.089l.276-7.714.005-7.95-.235-7.952c-.1-1.156-.028-2.292.003-3.448.035-1.337-.157-2.643-.392-3.957l-.697-3.411-.701-3.397C73.593.414 71.541.461 69.672.536L62.028.54c-2.44-.041-4.82.314-7.26.322-1.218.004-2.457.079-3.67-.038L47.026.602l-7.75.026C38.13.601 36.985.507 35.841.627l-3.509.357-8.116.038-8.281.035c-1.102.004-2.209-.039-3.311-.004-.799.025-2.007-.041-2.746.341-1.846.952-1.27 4.237-1.212 5.89l.004 3.972.315 4.045c-.027 2.729.596 5.364.631 8.09.038 2.95-.112 5.852.373 8.775l-1.479.892c-.6.37-1.168.773-1.611 1.33a2.67 2.67 0 0 0-.168.237c-1.129.66-2.163 1.534-2.979 2.37-1.122 1.15-2.318 2.741-2.607 4.36-.143.799.085 2.01.822 2.365-.219.645-.44 1.29-.561 1.962-.21 1.163-.173 2.27-.056 3.436.093.926.159 2.508 1.242 2.758-.006.963.143 1.922.469 2.687.414.971 1.171 1.927 2.056 2.609l.055.131c.315.692.611 1.283 1.006 1.806-.766.587-1.392 1.308-1.95 2.097-1.312 1.854-1.691 3.926-2.3 6.066l-.932 3.005c-.157.486-.424.895-.5 1.409a11.44 11.44 0 0 1-.319 1.478c-.301 1.091-.162 2.396-.012 3.501.16 1.167.218 2.589 1.263 3.303.205.14.46.147.688.068.097.072.204.132.32.174 1.144.412 3.083.518 4-.433.023-.024.044-.05.065-.076.233-.033.469-.053.714-.029.857.084 1.731-.043 2.579.119.964.184 1.843.308 2.832.312 4.029.017 8.055.109 12.068-.23.365-.031.888-.001 1.458.015a.99.99 0 0 0 .383.349c1.098.557 1.938-.07 2.84-.688.725-.498 1.586-.754 2.19-1.43.666-.745.729-1.622.734-2.575.006-1.163.353-2.333.173-3.487-.077-.496-.256-.975-.318-1.472-.077-.606.043-1.22.158-1.814.121-.626.265-1.249.337-1.884.065-.575-.058-1.124-.02-1.694.045-.684.241-1.393.464-2.085 1.618-.079 3.188-.295 4.813-.087 1.879.242 3.819.149 5.709.097 2.055-.057 4.097-.289 6.156-.293h6.015l6.259.006c2.023.02 4.033.286 6.056.31l5.955.013c1.663.043 3.317.291 4.96-.093.371-.087.705-.501.678-.891-.054-.773-.301-1.464-.299-2.248zM72.272 3.584c.072.387.093.81.147 1.074l.804 3.783c.233 1.146.485 2.314.577 3.481.093 1.182-.058 2.364-.054 3.546.004 1.123.182 2.232.261 3.35.093 1.302.031 2.617.027 3.921l.001 8.587c-.016 2.769-.258 5.53-.305 8.298-.024 1.379-.039 2.717-.269 4.081-.216 1.279-.392 2.438-.356 3.741.037 1.326-.305 2.585-.317 3.915-.008.884-.269 1.751-.444 2.632a21.29 21.29 0 0 0-3.106-2.886c-.466-.353-1.004-.523-1.49-.812.268-.444.183-1.105-.259-1.409.307-.462.452-.928.381-1.511-.108-.883-.084-1.675-.091-2.567-.014-1.833-.54-3.607-.519-5.448.021-1.806.101-3.64-.009-5.443-.056-.929-.296-1.831-.317-2.764s-.003-1.867-.009-2.8l-.197-11.279c-.066-1.74.111-3.459.204-5.194.041-.769.202-1.499.188-2.272-.007-.399 0-.849-.112-1.239a2.1 2.1 0 0 0-.131-.33c.987-.544 1.631-1.502 2.547-2.142 1.037-.725 1.924-1.395 2.829-2.289.008-.008.012-.016.02-.024zM33.551 40.046c-.013-.343-.131-.469-.227-.774-.249-.785-.023-1.879.27-2.619.266-.671.51-1.573 1.144-1.988.024-.016.107-.045.196-.078.012.157.049.342.058.445.064.759.413 1.736 1.171 1.717.324.549 1.184.366 1.355-.215a5.18 5.18 0 0 1 .396-.957c.083-.02.158.017.207.163.062.187-.234.662-.282.855-.093.377-.077.72.028 1.089.182.642.889.721 1.357.358.676-.524 1.105-.029.961.689-.13.646-.666 1.316-1.042 1.846-.382.538-.783 1.046-1.272 1.493-.123.112-.246.219-.368.324l-.565-.288c-1.167-.628-2.187-.82-3.392-.904-.068-.394.019-.746.004-1.157zm-1.611-.055c.193.384.298.78.469 1.17-1.054.058-1.443.728-1.423 1.88.014.818.087 1.57-.083 2.385-.196.939-.553 1.838-.948 2.708-.35.769-.609 1.525-.892 2.318-.323.907-.909 1.68-1.467 2.457a13.27 13.27 0 0 0 .149-.85c.117-.805.168-1.614.224-2.425.055-.788.269-1.621.233-2.408-.03-.638-.263-1.289-.407-1.906-.169-.725-.123-1.492-.363-2.196-.25-.734-.804-1.393-1.426-1.939.136-.427.223-.85.251-1.224.113-1.489-.606-2.68-1.771-3.537-.293-.215-.619-.192-.887-.039-.017-.82-.954-1.594-1.408-2.169-.408-.518-.91-.929-1.29-1.468-.385-.547-.68-1.02-1.25-1.397a.81.81 0 0 0-.898-.013l-.142-.06a7.22 7.22 0 0 0-.652-.228c.185-.165.302-.395.278-.663.06-1.976-.378-3.986-.407-5.971l-.096-6.599-.036-6.16c-.012-.802-.322-1.441-.43-2.199l-.018-.136c.419-.004.848-.073 1.238-.091 1.217-.056 2.446-.014 3.665-.018 1.277-.005 2.577.064 3.85-.042 1.243-.103 2.45-.29 3.703-.293 2.432-.005 4.796.073 7.217-.178 1.182-.123 2.363-.113 3.55-.113 1.247 0 2.537-.109 3.779-.011 1.186.094 2.313.355 3.517.394a90.68 90.68 0 0 0 3.903.03c2.519-.027 5.041-.14 7.561-.098a24.91 24.91 0 0 0 3.855-.223c.987-.134 2.005-.053 2.962-.309.055.342.127.689.093 1.047-.08.833-.314 1.632-.413 2.46-.193 1.61-.443 3.219-.448 4.842l-.172 11.043c-.01 1.806-.069 3.575.176 5.366.244 1.78.076 3.65.094 5.447.018 1.724.264 3.326.546 5.023.149.896.107 1.773.174 2.671.062.828.503 1.587.347 2.412-.011.057-.012.109-.008.16a.92.92 0 0 0-.406.476 1.89 1.89 0 0 0-.191-.028c-.533-.043-1.02.163-1.539.237-.828.117-1.72.043-2.553.031-1.37-.02-2.842-.206-4.186.097-.818.184-1.517.274-2.36.138-.688-.111-1.34-.232-2.038-.148-.789.095-1.531.326-2.331.373-.73.042-1.462.025-2.193.013-1.659-.029-3.317.002-4.976.024-.924.012-1.845.019-2.768.074-.497.03-1.012.024-1.492.142a17.47 17.47 0 0 0 .148-.852c.236-1.603.566-3.419.105-5.013a2.32 2.32 0 0 0-.553-.964c.437-.392.837-.824 1.172-1.275.711-.959 1.578-2.074 1.641-3.319.044-.877-.302-1.875-1.068-2.369a1.83 1.83 0 0 0-1.232-.296c.069-.221.122-.442.096-.656-.068-.558-.442-1.068-.925-1.361l.185-.291c.621-1.003 1.092-2.091 1.776-3.057.548-.775 1.172-1.516 1.062-2.527-.092-.846-.627-1.681-1.383-2.087-.661-.355-1.628-.527-2.343-.245-.888.351-1.086 1.128-1.407 1.922-.429 1.059-1.06 2.024-1.512 3.074-.168.391-.323.783-.401 1.203-.044.238-.057.481-.083.719-.612.166-1.206.592-1.56 1.006-.83.972-1.336 2.596-1.446 3.847-.063.736-.072 1.597.262 2.261zm-6.432 15.521a.34.34 0 0 0 .053.162l-.521.639c-.225.012-.453.015-.678.056-1.073.196-2.22.578-3.222 1.006-.97.416-1.966.947-3.056.953a5.63 5.63 0 0 1-.513-.023c.233-.447.329-.985.379-1.477.13-1.29-.145-2.638-.544-3.812a2.27 2.27 0 0 0 1.168.505c.923.119 1.879-.245 2.489-.948a2.43 2.43 0 0 0 .403-.646c.019.02.039.038.059.057l.005.636c.014 1.621 2.488 1.621 2.518 0 .021-1.144.252-2.265.227-3.41-.027-1.195-.076-2.387-.057-3.582.002-.104-.012-.197-.031-.285l.026-.18c.054-.383.073-.808-.07-1.179l-.027-.132.233-.193c.469-.295.869-.791 1.181-1.357.246.507.443 1.032.45 1.63a9.11 9.11 0 0 0 .183 1.839c.123.593.321 1.206.274 1.813-.11 1.43-.289 2.933-.496 4.355-.09.616-.125 1.237-.215 1.852-.082.552-.251 1.167-.219 1.722zm-4.414-11.648c-.018-.019-.038-.037-.057-.055.266.087.568.087.849.004a1.9 1.9 0 0 0 .003.194c.046.602-.05.962-.187 1.548-.148.634-.131 1.297-.149 1.943l-.026 1.253c-.144.558-.289 1.062-.342 1.586-.155-.111-.341-.083-.492.036-.661.52-1.017 1.971-2.139 1.572-.741-.263-.905-1.389-.877-2.064a4.45 4.45 0 0 1 .411-1.666c.348-.064.673-.302.748-.669a2.05 2.05 0 0 0 .036-.298c.754-.411 1.922-.026 1.972.958.008.152.24.154.238 0-.01-.69.229-1.264-.261-1.871-.509-.63-1.349-.811-2.106-.567-.162.052-.314.124-.461.206a1.32 1.32 0 0 0-.149-.085c.907-.693 1.881-1.042 2.711-.278.067.062.169.081.25.032.666-.401.506-1.266.027-1.781zm-3.314-7.338a4.4 4.4 0 0 0 .042-.703 5.44 5.44 0 0 1 .397.187c-.158.153-.305.329-.439.516zm.118 6.309a2.79 2.79 0 0 0 .018.553 4.41 4.41 0 0 0-.486.237 5.97 5.97 0 0 0 .468-.79zm5.094-.877c.093-.344.199-.688.221-1.053a12.22 12.22 0 0 0 .019-.812l.217-1.15a7.36 7.36 0 0 0 .08-.65c.534.948.714 1.779.071 2.9-.167.29-.385.534-.608.765zm14.69-9.436c-.303.508-.748 1.039-1.115 1.596-.059-.347-.171-.684-.431-.939a1.27 1.27 0 0 0-.48-.297l.027-.083a12.41 12.41 0 0 1 .927-2.293c.395-.743.828-1.464 1.149-2.244.204-.494.327-1.2.992-1.259.541-.048 1.236.398 1.388.875.264.834-.531 1.555-.978 2.171-.566.78-.987 1.647-1.479 2.473zm-2.465 1.941c-.199.433-.237.289-.244.112.116-.042.232-.086.244-.112zm4.037 16.509c.46.143.952.143 1.449.172.858.051 1.71.069 2.57.08l4.641.08c1.433.057 2.897.191 4.319-.054.876-.151 1.527-.237 2.421-.077.632.114 1.246.246 1.894.204.627-.04 1.221-.257 1.841-.318s1.283.06 1.902.08c1.488.047 3.066.237 4.54-.039.85-.159 1.009-.156 1.747.376.465.335.988.476 1.471.767 1.105.665 1.943 1.709 2.863 2.617l-2.512-.009-5.501.005c-.87.001-1.744.022-2.613-.047-.791-.063-1.562-.261-2.352-.325-1.727-.14-3.545.102-5.282.112l-5.478.032c-2.028.012-4.066.099-6.093.059-.764-.015-1.441-.079-2.175.179-.452.158-.874.191-1.3.191l.363-.673a14.97 14.97 0 0 0 1.284-3.412zM11.335 2.935c1.082-.164 2.123-.143 3.213-.13l7.647.031 7.877.041c1.11.006 2.225.048 3.334-.005 1.161-.056 2.289-.338 3.452-.349 2.334-.021 4.68.11 7.016.124 2.43.014 4.809.022 7.225.281 1.148.123 2.318.066 3.471.075 1.185.008 2.368.032 3.546-.114 2.323-.288 4.643-.172 6.984-.172h3.491a31.52 31.52 0 0 0 1.739-.05c.3-.016.733-.088 1.105-.043-.031.022-.061.045-.09.075-.763.772-1.513 1.42-2.413 2.031-.817.555-1.374 1.331-2.117 1.964-.986.841-2.217.695-3.422.802-1.162.103-2.262.304-3.439.284-2.37-.041-4.738.029-7.107.07-2.317.04-4.845.262-7.134-.155-4.347-.793-8.811.181-13.181.079-1.068-.025-2.138-.027-3.206-.024-1.185.004-2.33.212-3.508.286-2.376.149-4.773-.096-7.15.003-.38.016-.757.073-1.137.095-.142.008-.369.047-.499.013-.083.121-.137.127-.164.02-.042-.078-.08-.157-.114-.239-.151-.211-.157-.369-.354-.554-.38-.356-.905-.604-1.322-.921-1.419-1.082-3.061-1.991-4.298-3.292.082-.208.144-.161.555-.224zm3.69 54.913c-.176.251-.221.612-.028.858-.537.272-1.159.252-1.731.121-.052-.012-.099-.028-.149-.041a4.76 4.76 0 0 0 .842-1.415c.053-.054.105-.11.154-.168.557-.654 1.568-2.266 1.293-3.291.062-.215.131-.435.148-.665.032-.436.072-.835.152-1.267.145-.782.281-1.563.466-2.337l.178-.729a6.78 6.78 0 0 0-.123 1.071c-.018.771.158 1.621.558 2.298-.325-.062-.676.093-.699.48-.281.873-.355 1.956-.499 2.922-.072.485-.146.986-.301 1.453l-.199.579c.025-.074-.018.018-.063.133zm-.863-12.861c.042-.098.079-.203.109-.317a1.35 1.35 0 0 0 .032-.179c.236-.299.449-.606.642-.921.003.01.004.021.006.031.009.035.021.068.033.102-.253.206-.434.517-.462.93a2.93 2.93 0 0 1-.023.215 1.21 1.21 0 0 0-.335.14zM10.576 4.311c.713.795 1.715 1.38 2.565 1.993a34.3 34.3 0 0 1 2.188 1.706c.314.268.316.319.517.661.103.177.186.296.32.392-.006.25-.051.51-.025.735.032.281.143.534.202.808.188.863.024 1.781-.003 2.651-.059 1.915-.056 3.834-.084 5.749-.055 3.822-.099 7.622.124 11.438a1.26 1.26 0 0 0 .056.31c-.986-.099-1.992-.04-2.983.105-.758.111-1.453.334-2.118.623.295-2.179.292-4.359.325-6.563.018-1.205.027-2.412-.101-3.611-.115-1.085-.182-2.207-.386-3.276-.209-1.095-.111-2.18-.118-3.291-.008-1.236-.28-2.443-.315-3.676-.059-2.098-.185-4.23-.171-6.326l.007-.429zm.774 33.54a5.79 5.79 0 0 1-.343.336 10.72 10.72 0 0 0-.85.653 9.06 9.06 0 0 1-1.143.636c-.045.021-.09.039-.136.059l.884-.683c.367-.286.973-.755 1.588-1zM9.193 58.759l-.378-.248c-.3-.186-.708-.366-.948-.621a1.35 1.35 0 0 1-.174-.235.75.75 0 0 0 .355-.578 2.51 2.51 0 0 0 .689-.289c-.046.803.065 1.407.457 1.97zM8.54 44.405l.994-1.274.107-.135a28.39 28.39 0 0 0 1.111-.756l.231-.164-.033.151c-.527.441-1.046.891-1.488 1.411-.038.045-.075.093-.112.139a21.9 21.9 0 0 1-.81.629zm-4.454 2.423c-.177.305-.33.631-.471.96.13-.941.28-1.869.55-2.799a8.99 8.99 0 0 0 .098-.367c.22.071.455.113.696.13-.486.675-.863 1.393-.873 2.077zm1.119 2.661l-.051.079c.012-.044.02-.088.032-.131l.246-.871a1.85 1.85 0 0 0 .374.045 24.12 24.12 0 0 0-.602.878zm.436-10.53a4.16 4.16 0 0 0-.878.34c.358-.461.75-.894 1.2-1.282.803-.694 1.87-1.603 3.007-2.134l-.097.086c-.985.918-2.063 1.787-3.003 2.745a5.99 5.99 0 0 0-.228.245zm.709 14.518c.045-.002.086-.01.126-.018.021-.065.093-.028.007-.001.055-.012.104-.03.15-.051l-.124.291a.49.49 0 0 0-.019-.098c-.023-.069-.023-.113-.014-.14-.027.008-.066.014-.126.017zm-.341-11.349c.062-.078.125-.155.19-.23a2.95 2.95 0 0 0 .242.062 7.13 7.13 0 0 1-.432.168zm26.84 16.739c-.119.465-.184.77-.462 1.167a5.06 5.06 0 0 0-.585 1.06.66.66 0 0 0-.047.297c-.378.825-.675 1.69-.927 2.559-.324 1.117-.16 2.229-.417 3.35s-.623 2.273-.545 3.441c.033.504.186.991.238 1.492.058.555-.111 1.078-.202 1.62-.094.558-.162 1.123-.188 1.689-.012.269.04.535-.106.754-.151.226-.604.332-.841.45-.374.187-.701.407-1.031.644-.55.015-1.081.082-1.372.083-1.977.001-3.924.311-5.906.316-2.064.006-4.13-.014-6.194.029-1.092.023-2.264.161-3.343-.031s-2.03-.229-3.122-.221c-.489.003-.919.004-1.345.068-.308-1.588-.109-3.102.089-4.775.231-1.953.486-3.793 1.143-5.665.165-.47-.559-.763-.797-.336-1.088 1.949-1.571 3.874-2.065 6.025-.409 1.784-.78 3.54-.508 5.324l-.427.003a8.84 8.84 0 0 0-1.058.048c-.058-.495-.21-.998-.299-1.498-.176-.993-.43-2.153-.228-3.151.18-.885.272-1.698.576-2.541.311-.861.533-1.785.813-2.663.568-1.782.718-3.738 1.636-5.395.571-1.031 1.313-1.896 2.055-2.767l.109.074c.843.546 2.133 1.107 2.906.125a1.15 1.15 0 0 0 .201-.377c.577.413 1.195.739 1.908.961.989.308 2.264.481 3.197-.103a2.35 2.35 0 0 0 .999-1.218c.428.167.884.273 1.24.302 1.207.099 2.507-.38 3.577-.885.841-.398 1.707-.667 2.588-.901.101.079.242.104.378.025.111-.065.219-.136.328-.206l.614-.152c.799-.197 1.676-.906 1.729-1.77a.31.31 0 0 0-.006-.08 15.88 15.88 0 0 0 .757-.887c1.007-1.271 2.155-2.567 2.717-4.109.531-1.456 1.248-2.854 1.714-4.333a9.72 9.72 0 0 0 .432-2.246c.026-.377-.134-1.101-.079-1.599.228.014.477.054.645.056.517.007 1.05-.007 1.554.126.48.127.997.367 1.491.626-.248.637.473 1.264 1.096.926.076-.041.151-.087.226-.132.638.638.428 1.698.299 2.588-.166 1.142-.422 2.254-.81 3.339-.722 2.021-1.857 3.866-2.973 5.689-.533.872-1.116 1.783-1.372 2.783zm40.53 2.401c-1.957-.004-3.918.051-5.874-.006s-3.904-.282-5.867-.284c-2.081-.003-4.162.006-6.243.006-2.005 0-4.011-.015-6.015 0-1.927.015-3.842.24-5.767.293s-3.926.173-5.836-.121c-1.154-.177-2.303-.082-3.457.016a2.04 2.04 0 0 0 .154-.185c.46-.626.557-1.42.921-2.096.477-.888 1-1.749 1.511-2.617.819.263 1.537.318 2.544.063.643-.163 1.309-.017 1.966.001l2.779.04 10.404.062c.768.002 1.529-.057 2.297-.08.792-.024 1.52.121 2.298.238 1.615.244 3.253.18 4.882.182 3.411.004 6.867.167 10.273-.018.901-.049 1.643-.051 2.519.185a16.77 16.77 0 0 0 .596.129c.034.114.115.345.122.386.114.66.008 1.409.001 2.078-.005.482-.039.962.024 1.442a4.04 4.04 0 0 0 .085.419c-1.421.128-2.907-.131-4.318-.134zM28.593 16.83c-.684-.775-1.476-1.457-2.321-2.075.218-.294.44-.581.713-.837.496-.465.859-.939 1.106-1.58.085-.221-.197-.392-.379-.291l-.146.081c-.883.496-1.658 1.161-2.36 1.896l-2.282-1.362c-.237-.133-.5.133-.369.369.446.8 1.079 1.42 1.76 1.998l-.362.444c-.624.779-1.953 1.751-1.882 2.849.039.607.808 1.032 1.273.527l.106-.116c.114-.124.196-.325.131-.494-.075-.193 1.183-1.669 1.778-2.353.864.714 1.68 1.792 2.907 1.73.409-.021.592-.482.325-.785zm6.275-1.857c-.439-.335-.969-.316-1.491-.232.038-.544.028-1.082-.085-1.67-.085-.443-.851-.465-.917 0-.096.673-.242 1.312-.422 1.947-.587.107-1.172.167-1.783.035-.317-.068-.494.342-.22.522.517.34 1.06.526 1.637.606l-.05.149c-.283.821-.149 2.069.724 2.502.279.139.545.054.727-.19.273-.367.207-.673.118-1.102-.105-.505.006-.885.092-1.349.637-.048 1.295-.17 1.754-.57.222-.193.111-.499-.083-.647zm8.499-1.217c-.066-.183-.299-.177-.367 0-.247.641-.385 1.324-.56 1.988l-.194.645c-.878-.04-2.112.404-2.604-.229-.358-.461.675-1.662.865-2.118.356-.85.944-1.717.878-2.671-.021-.306-.458-.482-.62-.168-.647 1.255-1.432 2.425-2.169 3.619-.454.735-.516 1.71.142 2.345.556.537 2.025.913 3.085.684-.177.875-.637 1.985.087 2.714.192.193.504.288.768.203.351-.113.559-.283.59-.653.016-.186-.11-.34-.119-.507-.012-.244.125-.578.157-.836.203-1.626.638-3.424.061-5.016zm5.664.165c-1.325-.091-2.39.644-3.716.684-.543.016-.538.811 0 .84.701.039 1.35.329 2.063.237.238-.031.428-.134.656-.183.3-.065.691.003.997.01 1.03.023 1.01-1.518 0-1.587zm1.102 3.108c-1.147-.664-2.952-.263-4.209-.179-.785.053-.786 1.169 0 1.221 1.257.084 3.062.485 4.209-.179.324-.187.324-.675 0-.863zm8.592-2.297a3.3 3.3 0 0 0-2.533-.15c.536-1.156 1.294-2.33 1.201-3.514-.019-.242-.316-.268-.405-.055-.51 1.221-1.36 2.182-2.077 3.273-.549.835-.63 1.911-.537 2.887.093.965.681 1.912 1.458 2.488.917.68 1.891.282 2.67-.426 1.276-1.161 2.146-3.515.222-4.503zm-.818 2.582a2.89 2.89 0 0 1-.56.766c-.408.39-.507.438-.881.06-.448-.454-.671-.911-.746-1.372a.48.48 0 0 0 .321-.149l.048-.046a.78.78 0 0 0 .179-.076c.136-.045.261-.113.398-.156.367-.116.821-.193 1.185-.007.466.238.266.577.056.981zM27.05 23.053c-.787-.09-1.494.416-2.083 1.02-.547-.719-1.366-1.503-2.315-1.327-.567.105-.442 1.052.137 1.012.514-.035.951.761 1.27 1.382-.869 1.07-2.789 2.317-2.081 3.868.194.424.867.386 1.072 0 .232-.437.248-.833.614-1.272.402-.483.808-.889 1.154-1.404.441.545 1.032 1.092 1.624 1.055.277-.017.476-.212.492-.491.033-.582-.446-.955-.828-1.338-.183-.183-.339-.376-.486-.572.415-.669.915-1.336 1.481-1.559a.19.19 0 0 0-.051-.373zm5.882-.02c-.421.029-.798.177-1.194.307-.571.188-1.162.305-1.738.473-.339.099-.34.589 0 .688.836.243 1.552.232 2.403.121.293-.038.608-.086.903-.061.318.027.555.138.883.093.169-.023.32-.205.36-.36.241-.941-.879-1.311-1.617-1.261zm-.203 3.217c-.517-.254-.984-.113-1.493.103-.555.235-1.055.374-1.656.2-.393-.114-.617.443-.275.652.58.356 1.084.488 1.76.365.591-.108 1.313-.257 1.744-.697.168-.171.153-.507-.081-.622zM12.062 72c-.443.574-.626 1.449-.8 2.142-.128.513-.081 1.317.551 1.441.131.026.26-.017.331-.135.232-.38.057-.891.204-1.327.182-.543.237-1.145.59-1.609.396-.521-.484-1.022-.876-.512zm1.908.231c-.532-.23-1.009.443-.614.786-.08.262-.276.505-.378.752-.143.344-.209.788.009 1.113a.38.38 0 0 0 .688-.09c.238-.681 1.386-2.089.295-2.561zm.817 2.055c-.083.828-.726 1.561-.338 2.398.092.199.376.201.517.066.612-.586.897-1.639.931-2.465.03-.724-1.04-.697-1.11 0zm30.866-29.561c-.534.566-.743 1.465-.642 2.227.061.461.694.482.733 0 .058-.722-.264-1.341.201-2.001.123-.174-.149-.378-.293-.226zm2.605.132c-.073-.546-.89-.591-.888 0 .002.492-.365.78-.555 1.2-.173.384-.168.805-.072 1.208.109.457.816.457.925 0 .102-.426.138-.788.334-1.187s.315-.777.256-1.222zm1.189.001c-.028.354-.425.579-.641.82-.207.232-.402.553-.379.868-.069.112-.063.289.075.351.573.258.714-.378 1.031-.726.357-.392.696-.751.706-1.312.011-.516-.753-.503-.793 0zm2.612.29c-.167-.112-.407-.031-.505.132-.112.187-.026.386.132.504-.034-.025-.001-.001-.027.062-.037.089-.082.171-.127.256-.114.218-.206.413-.16.663.034.188.3.293.454.185.273-.191.456-.532.555-.847.119-.381.011-.732-.322-.956zM44.98 59.821c-.002-.052.004-.109.01-.159.063-.547.199-1.051.196-1.613-.003-.537-.811-.534-.832 0-.013.325-.037.644-.122.96-.054.203-.124.401-.14.613-.027.385.211.953.706.801.196-.06.315-.253.256-.45-.004-.015-.064-.17-.074-.151zm2.52-1.503c-.103-.566-1.065-.443-1.012.137.001.017-.01.142.004.125-.027.066-.079.132-.12.187-.062.081-.2.228-.27.354-.104.187-.183.404-.168.619.02.275.233.502.518.47.248-.027.338-.21.458-.395.075-.116.185-.236.273-.349.271-.352.398-.699.317-1.146z"/></svg>