<svg xmlns="http://www.w3.org/2000/svg" width="35" height="35" fill="none" xmlns:v="https://vecta.io/nano"><path d="M27.794 4.511a2.88 2.88 0 0 1 2.038.844c.54.541.844 1.274.844 2.038V27.57a2.88 2.88 0 0 1-2.882 2.882H7.618a2.88 2.88 0 0 1-2.882-2.882V7.393a2.88 2.88 0 0 1 2.882-2.882h20.177zm-.721 22.338v-7.638a4.7 4.7 0 0 0-4.698-4.698c-1.225 0-2.652.749-3.343 1.873v-1.6h-4.021v12.063h4.021v-7.105c0-1.11.893-2.018 2.003-2.018a2.02 2.02 0 0 1 2.018 2.018v7.105h4.021zM10.327 12.524a2.42 2.42 0 0 0 2.421-2.421 2.43 2.43 0 0 0-2.421-2.436c-.646 0-1.265.257-1.722.713s-.713 1.076-.713 1.722a2.43 2.43 0 0 0 2.436 2.421zm2.003 14.325V14.787H8.338v12.063h3.992z" fill="#40b385"/></svg>