<svg xmlns="http://www.w3.org/2000/svg" width="35" height="35" fill="none" xmlns:v="https://vecta.io/nano"><path d="M32.575 8.835c-1.11.504-2.306.836-3.545.994 1.268-.764 2.248-1.974 2.709-3.43-1.196.721-2.522 1.225-3.92 1.513-1.139-1.239-2.738-1.96-4.554-1.96-3.387 0-6.154 2.767-6.154 6.183a6.43 6.43 0 0 0 .159 1.412c-5.131-.259-9.699-2.724-12.74-6.456-.533.908-.836 1.974-.836 3.099 0 2.147 1.081 4.05 2.753 5.131-1.023 0-1.974-.288-2.81-.721v.043a6.19 6.19 0 0 0 4.958 6.067 6.08 6.08 0 0 1-2.781.101 6.17 6.17 0 0 0 5.765 4.295 12.28 12.28 0 0 1-7.681 2.652 12.58 12.58 0 0 1-1.47-.086 17.5 17.5 0 0 0 9.483 2.782c11.356 0 17.597-9.425 17.597-17.597 0-.274 0-.533-.014-.807 1.211-.865 2.248-1.96 3.084-3.214z" fill="#40b385"/></svg>